G04 #@! TF.GenerationSoftware,KiCad,Pcbnew,5.0.2+dfsg1-1~bpo9+1*
G04 #@! TF.CreationDate,2019-05-22T19:19:29+01:00*
G04 #@! TF.ProjectId,arduboy_flashcart,61726475-626f-4795-9f66-6c6173686361,rev?*
G04 #@! TF.SameCoordinates,Original*
G04 #@! TF.FileFunction,Copper,L2,Bot*
G04 #@! TF.FilePolarity,Positive*
%FSLAX46Y46*%
G04 Gerber Fmt 4.6, Leading zero omitted, Abs format (unit mm)*
G04 Created by KiCad (PCBNEW 5.0.2+dfsg1-1~bpo9+1) date Wed 22 May 2019 19:19:29 BST*
%MOMM*%
%LPD*%
G01*
G04 APERTURE LIST*
G04 #@! TA.AperFunction,ComponentPad*
%ADD10C,1.600000*%
G04 #@! TD*
G04 #@! TA.AperFunction,SMDPad,CuDef*
%ADD11R,1.600000X3.500000*%
G04 #@! TD*
G04 #@! TA.AperFunction,Conductor*
%ADD12C,0.250000*%
G04 #@! TD*
G04 APERTURE END LIST*
D10*
G04 #@! TO.P,U1,3*
G04 #@! TO.N,Net-(U1-Pad3)*
X132613400Y-51714400D03*
G04 #@! TO.P,U1,4*
G04 #@! TO.N,Net-(U1-Pad4)*
X132613400Y-49174400D03*
G04 #@! TO.P,U1,5*
G04 #@! TO.N,Net-(U1-Pad5)*
X132613400Y-46634400D03*
G04 #@! TO.P,U1,6*
G04 #@! TO.N,Net-(U1-Pad6)*
X132613400Y-44094400D03*
G04 #@! TO.P,U1,2*
G04 #@! TO.N,Net-(U1-Pad2)*
X132613400Y-54254400D03*
G04 #@! TO.P,U1,1*
G04 #@! TO.N,Net-(U1-Pad1)*
X132613400Y-56794400D03*
G04 #@! TD*
G04 #@! TO.P,U2,4*
G04 #@! TO.N,Net-(U2-Pad4)*
X101625400Y-49174400D03*
G04 #@! TO.P,U2,3*
G04 #@! TO.N,Net-(U2-Pad3)*
X101625400Y-51714400D03*
G04 #@! TO.P,U2,10*
G04 #@! TO.N,Net-(U1-Pad5)*
X117271800Y-49174400D03*
G04 #@! TO.P,U2,9*
G04 #@! TO.N,Net-(U1-Pad2)*
X117271800Y-51714400D03*
G04 #@! TO.P,U2,5*
G04 #@! TO.N,Net-(U2-Pad5)*
X101625400Y-46634400D03*
G04 #@! TO.P,U2,6*
G04 #@! TO.N,Net-(U2-Pad6)*
X101625400Y-44094400D03*
G04 #@! TO.P,U2,2*
G04 #@! TO.N,Net-(U2-Pad2)*
X101625400Y-54254400D03*
G04 #@! TO.P,U2,1*
G04 #@! TO.N,Net-(U2-Pad1)*
X101625400Y-56794400D03*
G04 #@! TO.P,U2,11*
G04 #@! TO.N,Net-(U1-Pad6)*
X117271800Y-46634400D03*
G04 #@! TO.P,U2,12*
G04 #@! TO.N,Net-(U1-Pad3)*
X117271800Y-44094400D03*
G04 #@! TO.P,U2,8*
G04 #@! TO.N,Net-(U1-Pad4)*
X117271800Y-54254400D03*
G04 #@! TO.P,U2,7*
G04 #@! TO.N,Net-(U1-Pad1)*
X117271800Y-56794400D03*
G04 #@! TD*
D11*
G04 #@! TO.P,U3,3*
G04 #@! TO.N,Net-(U2-Pad3)*
X116941600Y-62611000D03*
G04 #@! TO.P,U3,4*
G04 #@! TO.N,Net-(U2-Pad4)*
X119481600Y-62611000D03*
G04 #@! TO.P,U3,5*
G04 #@! TO.N,Net-(U2-Pad5)*
X122021600Y-62611000D03*
G04 #@! TO.P,U3,6*
G04 #@! TO.N,Net-(U2-Pad6)*
X124561600Y-62611000D03*
G04 #@! TO.P,U3,1*
G04 #@! TO.N,Net-(U2-Pad1)*
X109321600Y-62611000D03*
G04 #@! TO.P,U3,2*
G04 #@! TO.N,Net-(U2-Pad2)*
X111861600Y-62611000D03*
G04 #@! TD*
D12*
G04 #@! TO.N,Net-(U1-Pad3)*
X118071799Y-44894399D02*
X123634399Y-44894399D01*
X117271800Y-44094400D02*
X118071799Y-44894399D01*
X130454400Y-51714400D02*
X132613400Y-51714400D01*
X123634399Y-44894399D02*
X130454400Y-51714400D01*
G04 #@! TO.N,Net-(U1-Pad2)*
X119811800Y-54254400D02*
X132613400Y-54254400D01*
X117271800Y-51714400D02*
X119811800Y-54254400D01*
G04 #@! TO.N,Net-(U2-Pad4)*
X102425399Y-49974399D02*
X105955999Y-49974399D01*
X101625400Y-49174400D02*
X102425399Y-49974399D01*
X105955999Y-49974399D02*
X116128800Y-60147200D01*
X119481600Y-61661000D02*
X119481600Y-62611000D01*
X117967800Y-60147200D02*
X119481600Y-61661000D01*
X116128800Y-60147200D02*
X117967800Y-60147200D01*
G04 #@! TO.N,Net-(U2-Pad3)*
X115891600Y-62611000D02*
X116941600Y-62611000D01*
X102425399Y-52514399D02*
X105794999Y-52514399D01*
X105794999Y-52514399D02*
X115891600Y-62611000D01*
X101625400Y-51714400D02*
X102425399Y-52514399D01*
G04 #@! TO.N,Net-(U2-Pad5)*
X102425399Y-47434399D02*
X105270199Y-47434399D01*
X101625400Y-46634400D02*
X102425399Y-47434399D01*
X105270199Y-47434399D02*
X116941600Y-59105800D01*
X122021600Y-61661000D02*
X122021600Y-62611000D01*
X119466400Y-59105800D02*
X122021600Y-61661000D01*
X116941600Y-59105800D02*
X119466400Y-59105800D01*
G04 #@! TO.N,Net-(U2-Pad6)*
X124561600Y-60611000D02*
X119475000Y-55524400D01*
X124561600Y-62611000D02*
X124561600Y-60611000D01*
X119475000Y-55524400D02*
X115087400Y-55524400D01*
X103657400Y-44094400D02*
X101625400Y-44094400D01*
X115087400Y-55524400D02*
X103657400Y-44094400D01*
G04 #@! TO.N,Net-(U2-Pad2)*
X105254999Y-55054399D02*
X111861600Y-61661000D01*
X102425399Y-55054399D02*
X105254999Y-55054399D01*
X111861600Y-61661000D02*
X111861600Y-62611000D01*
X101625400Y-54254400D02*
X102425399Y-55054399D01*
G04 #@! TO.N,Net-(U2-Pad1)*
X109321600Y-61661000D02*
X109321600Y-62611000D01*
X104455000Y-56794400D02*
X109321600Y-61661000D01*
X101625400Y-56794400D02*
X104455000Y-56794400D01*
G04 #@! TD*
M02*
