G04 #@! TF.GenerationSoftware,KiCad,Pcbnew,5.0.2+dfsg1-1~bpo9+1*
G04 #@! TF.CreationDate,2019-05-22T19:19:29+01:00*
G04 #@! TF.ProjectId,arduboy_flashcart,61726475-626f-4795-9f66-6c6173686361,rev?*
G04 #@! TF.SameCoordinates,Original*
G04 #@! TF.FileFunction,Legend,Bot*
G04 #@! TF.FilePolarity,Positive*
%FSLAX46Y46*%
G04 Gerber Fmt 4.6, Leading zero omitted, Abs format (unit mm)*
G04 Created by KiCad (PCBNEW 5.0.2+dfsg1-1~bpo9+1) date Wed 22 May 2019 19:19:29 BST*
%MOMM*%
%LPD*%
G01*
G04 APERTURE LIST*
%ADD10C,0.300000*%
G04 APERTURE END LIST*
D10*
X108871628Y-47872971D02*
X108800200Y-47944400D01*
X108728771Y-48087257D01*
X108728771Y-48444400D01*
X108800200Y-48587257D01*
X108871628Y-48658685D01*
X109014485Y-48730114D01*
X109157342Y-48730114D01*
X109371628Y-48658685D01*
X110228771Y-47801542D01*
X110228771Y-48730114D01*
X108728771Y-49658685D02*
X108728771Y-49801542D01*
X108800200Y-49944400D01*
X108871628Y-50015828D01*
X109014485Y-50087257D01*
X109300200Y-50158685D01*
X109657342Y-50158685D01*
X109943057Y-50087257D01*
X110085914Y-50015828D01*
X110157342Y-49944400D01*
X110228771Y-49801542D01*
X110228771Y-49658685D01*
X110157342Y-49515828D01*
X110085914Y-49444400D01*
X109943057Y-49372971D01*
X109657342Y-49301542D01*
X109300200Y-49301542D01*
X109014485Y-49372971D01*
X108871628Y-49444400D01*
X108800200Y-49515828D01*
X108728771Y-49658685D01*
X110228771Y-51587257D02*
X110228771Y-50730114D01*
X110228771Y-51158685D02*
X108728771Y-51158685D01*
X108943057Y-51015828D01*
X109085914Y-50872971D01*
X109157342Y-50730114D01*
X110228771Y-52301542D02*
X110228771Y-52587257D01*
X110157342Y-52730114D01*
X110085914Y-52801542D01*
X109871628Y-52944400D01*
X109585914Y-53015828D01*
X109014485Y-53015828D01*
X108871628Y-52944400D01*
X108800200Y-52872971D01*
X108728771Y-52730114D01*
X108728771Y-52444400D01*
X108800200Y-52301542D01*
X108871628Y-52230114D01*
X109014485Y-52158685D01*
X109371628Y-52158685D01*
X109514485Y-52230114D01*
X109585914Y-52301542D01*
X109657342Y-52444400D01*
X109657342Y-52730114D01*
X109585914Y-52872971D01*
X109514485Y-52944400D01*
X109371628Y-53015828D01*
X106953857Y-44051542D02*
X106953857Y-43551542D01*
X107739571Y-43551542D02*
X106239571Y-43551542D01*
X106239571Y-44265828D01*
X107739571Y-45480114D02*
X106953857Y-45480114D01*
X106811000Y-45408685D01*
X106739571Y-45265828D01*
X106739571Y-44980114D01*
X106811000Y-44837257D01*
X107668142Y-45480114D02*
X107739571Y-45337257D01*
X107739571Y-44980114D01*
X107668142Y-44837257D01*
X107525285Y-44765828D01*
X107382428Y-44765828D01*
X107239571Y-44837257D01*
X107168142Y-44980114D01*
X107168142Y-45337257D01*
X107096714Y-45480114D01*
X107668142Y-46837257D02*
X107739571Y-46694400D01*
X107739571Y-46408685D01*
X107668142Y-46265828D01*
X107596714Y-46194400D01*
X107453857Y-46122971D01*
X107025285Y-46122971D01*
X106882428Y-46194400D01*
X106811000Y-46265828D01*
X106739571Y-46408685D01*
X106739571Y-46694400D01*
X106811000Y-46837257D01*
X107668142Y-48051542D02*
X107739571Y-47908685D01*
X107739571Y-47622971D01*
X107668142Y-47480114D01*
X107525285Y-47408685D01*
X106953857Y-47408685D01*
X106811000Y-47480114D01*
X106739571Y-47622971D01*
X106739571Y-47908685D01*
X106811000Y-48051542D01*
X106953857Y-48122971D01*
X107096714Y-48122971D01*
X107239571Y-47408685D01*
X107739571Y-48980114D02*
X107668142Y-48837257D01*
X107525285Y-48765828D01*
X106239571Y-48765828D01*
X107668142Y-50122971D02*
X107739571Y-49980114D01*
X107739571Y-49694400D01*
X107668142Y-49551542D01*
X107525285Y-49480114D01*
X106953857Y-49480114D01*
X106811000Y-49551542D01*
X106739571Y-49694400D01*
X106739571Y-49980114D01*
X106811000Y-50122971D01*
X106953857Y-50194400D01*
X107096714Y-50194400D01*
X107239571Y-49480114D01*
X107668142Y-50765828D02*
X107739571Y-50908685D01*
X107739571Y-51194400D01*
X107668142Y-51337257D01*
X107525285Y-51408685D01*
X107453857Y-51408685D01*
X107311000Y-51337257D01*
X107239571Y-51194400D01*
X107239571Y-50980114D01*
X107168142Y-50837257D01*
X107025285Y-50765828D01*
X106953857Y-50765828D01*
X106811000Y-50837257D01*
X106739571Y-50980114D01*
X106739571Y-51194400D01*
X106811000Y-51337257D01*
X107668142Y-51980114D02*
X107739571Y-52122971D01*
X107739571Y-52408685D01*
X107668142Y-52551542D01*
X107525285Y-52622971D01*
X107453857Y-52622971D01*
X107311000Y-52551542D01*
X107239571Y-52408685D01*
X107239571Y-52194400D01*
X107168142Y-52051542D01*
X107025285Y-51980114D01*
X106953857Y-51980114D01*
X106811000Y-52051542D01*
X106739571Y-52194400D01*
X106739571Y-52408685D01*
X106811000Y-52551542D01*
X106739571Y-53051542D02*
X106739571Y-53622971D01*
X106239571Y-53265828D02*
X107525285Y-53265828D01*
X107668142Y-53337257D01*
X107739571Y-53480114D01*
X107739571Y-53622971D01*
X107668142Y-54694400D02*
X107739571Y-54551542D01*
X107739571Y-54265828D01*
X107668142Y-54122971D01*
X107525285Y-54051542D01*
X106953857Y-54051542D01*
X106811000Y-54122971D01*
X106739571Y-54265828D01*
X106739571Y-54551542D01*
X106811000Y-54694400D01*
X106953857Y-54765828D01*
X107096714Y-54765828D01*
X107239571Y-54051542D01*
X107668142Y-56051542D02*
X107739571Y-55908685D01*
X107739571Y-55622971D01*
X107668142Y-55480114D01*
X107596714Y-55408685D01*
X107453857Y-55337257D01*
X107025285Y-55337257D01*
X106882428Y-55408685D01*
X106811000Y-55480114D01*
X106739571Y-55622971D01*
X106739571Y-55908685D01*
X106811000Y-56051542D01*
X107739571Y-56694400D02*
X106239571Y-56694400D01*
X107739571Y-57337257D02*
X106953857Y-57337257D01*
X106811000Y-57265828D01*
X106739571Y-57122971D01*
X106739571Y-56908685D01*
X106811000Y-56765828D01*
X106882428Y-56694400D01*
X126645571Y-59305000D02*
X125931285Y-59305000D01*
X126788428Y-59733571D02*
X126288428Y-58233571D01*
X125788428Y-59733571D01*
X125288428Y-59733571D02*
X125288428Y-58733571D01*
X125288428Y-59019285D02*
X125217000Y-58876428D01*
X125145571Y-58805000D01*
X125002714Y-58733571D01*
X124859857Y-58733571D01*
X123717000Y-59733571D02*
X123717000Y-58233571D01*
X123717000Y-59662142D02*
X123859857Y-59733571D01*
X124145571Y-59733571D01*
X124288428Y-59662142D01*
X124359857Y-59590714D01*
X124431285Y-59447857D01*
X124431285Y-59019285D01*
X124359857Y-58876428D01*
X124288428Y-58805000D01*
X124145571Y-58733571D01*
X123859857Y-58733571D01*
X123717000Y-58805000D01*
X122359857Y-58733571D02*
X122359857Y-59733571D01*
X123002714Y-58733571D02*
X123002714Y-59519285D01*
X122931285Y-59662142D01*
X122788428Y-59733571D01*
X122574142Y-59733571D01*
X122431285Y-59662142D01*
X122359857Y-59590714D01*
X121645571Y-59733571D02*
X121645571Y-58233571D01*
X121645571Y-58805000D02*
X121502714Y-58733571D01*
X121217000Y-58733571D01*
X121074142Y-58805000D01*
X121002714Y-58876428D01*
X120931285Y-59019285D01*
X120931285Y-59447857D01*
X121002714Y-59590714D01*
X121074142Y-59662142D01*
X121217000Y-59733571D01*
X121502714Y-59733571D01*
X121645571Y-59662142D01*
X120074142Y-59733571D02*
X120217000Y-59662142D01*
X120288428Y-59590714D01*
X120359857Y-59447857D01*
X120359857Y-59019285D01*
X120288428Y-58876428D01*
X120217000Y-58805000D01*
X120074142Y-58733571D01*
X119859857Y-58733571D01*
X119717000Y-58805000D01*
X119645571Y-58876428D01*
X119574142Y-59019285D01*
X119574142Y-59447857D01*
X119645571Y-59590714D01*
X119717000Y-59662142D01*
X119859857Y-59733571D01*
X120074142Y-59733571D01*
X119074142Y-58733571D02*
X118717000Y-59733571D01*
X118359857Y-58733571D02*
X118717000Y-59733571D01*
X118859857Y-60090714D01*
X118931285Y-60162142D01*
X119074142Y-60233571D01*
X116859857Y-58733571D02*
X116288428Y-58733571D01*
X116645571Y-59733571D02*
X116645571Y-58447857D01*
X116574142Y-58305000D01*
X116431285Y-58233571D01*
X116288428Y-58233571D01*
X115574142Y-59733571D02*
X115717000Y-59662142D01*
X115788428Y-59519285D01*
X115788428Y-58233571D01*
X114359857Y-59733571D02*
X114359857Y-58947857D01*
X114431285Y-58805000D01*
X114574142Y-58733571D01*
X114859857Y-58733571D01*
X115002714Y-58805000D01*
X114359857Y-59662142D02*
X114502714Y-59733571D01*
X114859857Y-59733571D01*
X115002714Y-59662142D01*
X115074142Y-59519285D01*
X115074142Y-59376428D01*
X115002714Y-59233571D01*
X114859857Y-59162142D01*
X114502714Y-59162142D01*
X114359857Y-59090714D01*
X113717000Y-59662142D02*
X113574142Y-59733571D01*
X113288428Y-59733571D01*
X113145571Y-59662142D01*
X113074142Y-59519285D01*
X113074142Y-59447857D01*
X113145571Y-59305000D01*
X113288428Y-59233571D01*
X113502714Y-59233571D01*
X113645571Y-59162142D01*
X113717000Y-59019285D01*
X113717000Y-58947857D01*
X113645571Y-58805000D01*
X113502714Y-58733571D01*
X113288428Y-58733571D01*
X113145571Y-58805000D01*
X112431285Y-59733571D02*
X112431285Y-58233571D01*
X111788428Y-59733571D02*
X111788428Y-58947857D01*
X111859857Y-58805000D01*
X112002714Y-58733571D01*
X112217000Y-58733571D01*
X112359857Y-58805000D01*
X112431285Y-58876428D01*
X110431285Y-59662142D02*
X110574142Y-59733571D01*
X110859857Y-59733571D01*
X111002714Y-59662142D01*
X111074142Y-59590714D01*
X111145571Y-59447857D01*
X111145571Y-59019285D01*
X111074142Y-58876428D01*
X111002714Y-58805000D01*
X110859857Y-58733571D01*
X110574142Y-58733571D01*
X110431285Y-58805000D01*
X109145571Y-59733571D02*
X109145571Y-58947857D01*
X109217000Y-58805000D01*
X109359857Y-58733571D01*
X109645571Y-58733571D01*
X109788428Y-58805000D01*
X109145571Y-59662142D02*
X109288428Y-59733571D01*
X109645571Y-59733571D01*
X109788428Y-59662142D01*
X109859857Y-59519285D01*
X109859857Y-59376428D01*
X109788428Y-59233571D01*
X109645571Y-59162142D01*
X109288428Y-59162142D01*
X109145571Y-59090714D01*
X108431285Y-59733571D02*
X108431285Y-58733571D01*
X108431285Y-59019285D02*
X108359857Y-58876428D01*
X108288428Y-58805000D01*
X108145571Y-58733571D01*
X108002714Y-58733571D01*
X107717000Y-58733571D02*
X107145571Y-58733571D01*
X107502714Y-58233571D02*
X107502714Y-59519285D01*
X107431285Y-59662142D01*
X107288428Y-59733571D01*
X107145571Y-59733571D01*
M02*
