G04 #@! TF.GenerationSoftware,KiCad,Pcbnew,5.0.2+dfsg1-1~bpo9+1*
G04 #@! TF.CreationDate,2019-05-22T19:19:29+01:00*
G04 #@! TF.ProjectId,arduboy_flashcart,61726475-626f-4795-9f66-6c6173686361,rev?*
G04 #@! TF.SameCoordinates,Original*
G04 #@! TF.FileFunction,Legend,Top*
G04 #@! TF.FilePolarity,Positive*
%FSLAX46Y46*%
G04 Gerber Fmt 4.6, Leading zero omitted, Abs format (unit mm)*
G04 Created by KiCad (PCBNEW 5.0.2+dfsg1-1~bpo9+1) date Wed 22 May 2019 19:19:29 BST*
%MOMM*%
%LPD*%
G01*
G04 APERTURE LIST*
%ADD10C,0.300000*%
%ADD11C,0.200000*%
%ADD12C,0.150000*%
G04 APERTURE END LIST*
D10*
X107399571Y-60090857D02*
X106899571Y-60090857D01*
X106899571Y-60876571D02*
X106899571Y-59376571D01*
X107613857Y-59376571D01*
X108828142Y-60876571D02*
X108828142Y-60090857D01*
X108756714Y-59948000D01*
X108613857Y-59876571D01*
X108328142Y-59876571D01*
X108185285Y-59948000D01*
X108828142Y-60805142D02*
X108685285Y-60876571D01*
X108328142Y-60876571D01*
X108185285Y-60805142D01*
X108113857Y-60662285D01*
X108113857Y-60519428D01*
X108185285Y-60376571D01*
X108328142Y-60305142D01*
X108685285Y-60305142D01*
X108828142Y-60233714D01*
X110185285Y-60805142D02*
X110042428Y-60876571D01*
X109756714Y-60876571D01*
X109613857Y-60805142D01*
X109542428Y-60733714D01*
X109471000Y-60590857D01*
X109471000Y-60162285D01*
X109542428Y-60019428D01*
X109613857Y-59948000D01*
X109756714Y-59876571D01*
X110042428Y-59876571D01*
X110185285Y-59948000D01*
X111399571Y-60805142D02*
X111256714Y-60876571D01*
X110971000Y-60876571D01*
X110828142Y-60805142D01*
X110756714Y-60662285D01*
X110756714Y-60090857D01*
X110828142Y-59948000D01*
X110971000Y-59876571D01*
X111256714Y-59876571D01*
X111399571Y-59948000D01*
X111471000Y-60090857D01*
X111471000Y-60233714D01*
X110756714Y-60376571D01*
X112328142Y-60876571D02*
X112185285Y-60805142D01*
X112113857Y-60662285D01*
X112113857Y-59376571D01*
X113471000Y-60805142D02*
X113328142Y-60876571D01*
X113042428Y-60876571D01*
X112899571Y-60805142D01*
X112828142Y-60662285D01*
X112828142Y-60090857D01*
X112899571Y-59948000D01*
X113042428Y-59876571D01*
X113328142Y-59876571D01*
X113471000Y-59948000D01*
X113542428Y-60090857D01*
X113542428Y-60233714D01*
X112828142Y-60376571D01*
X114113857Y-60805142D02*
X114256714Y-60876571D01*
X114542428Y-60876571D01*
X114685285Y-60805142D01*
X114756714Y-60662285D01*
X114756714Y-60590857D01*
X114685285Y-60448000D01*
X114542428Y-60376571D01*
X114328142Y-60376571D01*
X114185285Y-60305142D01*
X114113857Y-60162285D01*
X114113857Y-60090857D01*
X114185285Y-59948000D01*
X114328142Y-59876571D01*
X114542428Y-59876571D01*
X114685285Y-59948000D01*
X115328142Y-60805142D02*
X115471000Y-60876571D01*
X115756714Y-60876571D01*
X115899571Y-60805142D01*
X115971000Y-60662285D01*
X115971000Y-60590857D01*
X115899571Y-60448000D01*
X115756714Y-60376571D01*
X115542428Y-60376571D01*
X115399571Y-60305142D01*
X115328142Y-60162285D01*
X115328142Y-60090857D01*
X115399571Y-59948000D01*
X115542428Y-59876571D01*
X115756714Y-59876571D01*
X115899571Y-59948000D01*
X116399571Y-59876571D02*
X116971000Y-59876571D01*
X116613857Y-59376571D02*
X116613857Y-60662285D01*
X116685285Y-60805142D01*
X116828142Y-60876571D01*
X116971000Y-60876571D01*
X118042428Y-60805142D02*
X117899571Y-60876571D01*
X117613857Y-60876571D01*
X117471000Y-60805142D01*
X117399571Y-60662285D01*
X117399571Y-60090857D01*
X117471000Y-59948000D01*
X117613857Y-59876571D01*
X117899571Y-59876571D01*
X118042428Y-59948000D01*
X118113857Y-60090857D01*
X118113857Y-60233714D01*
X117399571Y-60376571D01*
X119399571Y-60805142D02*
X119256714Y-60876571D01*
X118971000Y-60876571D01*
X118828142Y-60805142D01*
X118756714Y-60733714D01*
X118685285Y-60590857D01*
X118685285Y-60162285D01*
X118756714Y-60019428D01*
X118828142Y-59948000D01*
X118971000Y-59876571D01*
X119256714Y-59876571D01*
X119399571Y-59948000D01*
X120042428Y-60876571D02*
X120042428Y-59376571D01*
X120685285Y-60876571D02*
X120685285Y-60090857D01*
X120613857Y-59948000D01*
X120471000Y-59876571D01*
X120256714Y-59876571D01*
X120113857Y-59948000D01*
X120042428Y-60019428D01*
X122470999Y-59519428D02*
X122542428Y-59448000D01*
X122685285Y-59376571D01*
X123042428Y-59376571D01*
X123185285Y-59448000D01*
X123256714Y-59519428D01*
X123328142Y-59662285D01*
X123328142Y-59805142D01*
X123256714Y-60019428D01*
X122399571Y-60876571D01*
X123328142Y-60876571D01*
X124256714Y-59376571D02*
X124399571Y-59376571D01*
X124542428Y-59448000D01*
X124613857Y-59519428D01*
X124685285Y-59662285D01*
X124756714Y-59948000D01*
X124756714Y-60305142D01*
X124685285Y-60590857D01*
X124613857Y-60733714D01*
X124542428Y-60805142D01*
X124399571Y-60876571D01*
X124256714Y-60876571D01*
X124113857Y-60805142D01*
X124042428Y-60733714D01*
X123971000Y-60590857D01*
X123899571Y-60305142D01*
X123899571Y-59948000D01*
X123971000Y-59662285D01*
X124042428Y-59519428D01*
X124113857Y-59448000D01*
X124256714Y-59376571D01*
X126185285Y-60876571D02*
X125328142Y-60876571D01*
X125756714Y-60876571D02*
X125756714Y-59376571D01*
X125613857Y-59590857D01*
X125471000Y-59733714D01*
X125328142Y-59805142D01*
X126899571Y-60876571D02*
X127185285Y-60876571D01*
X127328142Y-60805142D01*
X127399571Y-60733714D01*
X127542428Y-60519428D01*
X127613857Y-60233714D01*
X127613857Y-59662285D01*
X127542428Y-59519428D01*
X127471000Y-59448000D01*
X127328142Y-59376571D01*
X127042428Y-59376571D01*
X126899571Y-59448000D01*
X126828142Y-59519428D01*
X126756714Y-59662285D01*
X126756714Y-60019428D01*
X126828142Y-60162285D01*
X126899571Y-60233714D01*
X127042428Y-60305142D01*
X127328142Y-60305142D01*
X127471000Y-60233714D01*
X127542428Y-60162285D01*
X127613857Y-60019428D01*
X107263028Y-63318200D02*
X107977314Y-63318200D01*
X107120171Y-63746771D02*
X107620171Y-62246771D01*
X108120171Y-63746771D01*
X108620171Y-63746771D02*
X108620171Y-62746771D01*
X108620171Y-63032485D02*
X108691600Y-62889628D01*
X108763028Y-62818200D01*
X108905885Y-62746771D01*
X109048742Y-62746771D01*
X110191600Y-63746771D02*
X110191600Y-62246771D01*
X110191600Y-63675342D02*
X110048742Y-63746771D01*
X109763028Y-63746771D01*
X109620171Y-63675342D01*
X109548742Y-63603914D01*
X109477314Y-63461057D01*
X109477314Y-63032485D01*
X109548742Y-62889628D01*
X109620171Y-62818200D01*
X109763028Y-62746771D01*
X110048742Y-62746771D01*
X110191600Y-62818200D01*
X111548742Y-62746771D02*
X111548742Y-63746771D01*
X110905885Y-62746771D02*
X110905885Y-63532485D01*
X110977314Y-63675342D01*
X111120171Y-63746771D01*
X111334457Y-63746771D01*
X111477314Y-63675342D01*
X111548742Y-63603914D01*
X112263028Y-63746771D02*
X112263028Y-62246771D01*
X112263028Y-62818200D02*
X112405885Y-62746771D01*
X112691600Y-62746771D01*
X112834457Y-62818200D01*
X112905885Y-62889628D01*
X112977314Y-63032485D01*
X112977314Y-63461057D01*
X112905885Y-63603914D01*
X112834457Y-63675342D01*
X112691600Y-63746771D01*
X112405885Y-63746771D01*
X112263028Y-63675342D01*
X113834457Y-63746771D02*
X113691600Y-63675342D01*
X113620171Y-63603914D01*
X113548742Y-63461057D01*
X113548742Y-63032485D01*
X113620171Y-62889628D01*
X113691600Y-62818200D01*
X113834457Y-62746771D01*
X114048742Y-62746771D01*
X114191600Y-62818200D01*
X114263028Y-62889628D01*
X114334457Y-63032485D01*
X114334457Y-63461057D01*
X114263028Y-63603914D01*
X114191600Y-63675342D01*
X114048742Y-63746771D01*
X113834457Y-63746771D01*
X114834457Y-62746771D02*
X115191600Y-63746771D01*
X115548742Y-62746771D02*
X115191600Y-63746771D01*
X115048742Y-64103914D01*
X114977314Y-64175342D01*
X114834457Y-64246771D01*
X117048742Y-62746771D02*
X117620171Y-62746771D01*
X117263028Y-63746771D02*
X117263028Y-62461057D01*
X117334457Y-62318200D01*
X117477314Y-62246771D01*
X117620171Y-62246771D01*
X118334457Y-63746771D02*
X118191600Y-63675342D01*
X118120171Y-63532485D01*
X118120171Y-62246771D01*
X119548742Y-63746771D02*
X119548742Y-62961057D01*
X119477314Y-62818200D01*
X119334457Y-62746771D01*
X119048742Y-62746771D01*
X118905885Y-62818200D01*
X119548742Y-63675342D02*
X119405885Y-63746771D01*
X119048742Y-63746771D01*
X118905885Y-63675342D01*
X118834457Y-63532485D01*
X118834457Y-63389628D01*
X118905885Y-63246771D01*
X119048742Y-63175342D01*
X119405885Y-63175342D01*
X119548742Y-63103914D01*
X120191600Y-63675342D02*
X120334457Y-63746771D01*
X120620171Y-63746771D01*
X120763028Y-63675342D01*
X120834457Y-63532485D01*
X120834457Y-63461057D01*
X120763028Y-63318200D01*
X120620171Y-63246771D01*
X120405885Y-63246771D01*
X120263028Y-63175342D01*
X120191600Y-63032485D01*
X120191600Y-62961057D01*
X120263028Y-62818200D01*
X120405885Y-62746771D01*
X120620171Y-62746771D01*
X120763028Y-62818200D01*
X121477314Y-63746771D02*
X121477314Y-62246771D01*
X122120171Y-63746771D02*
X122120171Y-62961057D01*
X122048742Y-62818200D01*
X121905885Y-62746771D01*
X121691600Y-62746771D01*
X121548742Y-62818200D01*
X121477314Y-62889628D01*
X123477314Y-63675342D02*
X123334457Y-63746771D01*
X123048742Y-63746771D01*
X122905885Y-63675342D01*
X122834457Y-63603914D01*
X122763028Y-63461057D01*
X122763028Y-63032485D01*
X122834457Y-62889628D01*
X122905885Y-62818200D01*
X123048742Y-62746771D01*
X123334457Y-62746771D01*
X123477314Y-62818200D01*
X124763028Y-63746771D02*
X124763028Y-62961057D01*
X124691600Y-62818200D01*
X124548742Y-62746771D01*
X124263028Y-62746771D01*
X124120171Y-62818200D01*
X124763028Y-63675342D02*
X124620171Y-63746771D01*
X124263028Y-63746771D01*
X124120171Y-63675342D01*
X124048742Y-63532485D01*
X124048742Y-63389628D01*
X124120171Y-63246771D01*
X124263028Y-63175342D01*
X124620171Y-63175342D01*
X124763028Y-63103914D01*
X125477314Y-63746771D02*
X125477314Y-62746771D01*
X125477314Y-63032485D02*
X125548742Y-62889628D01*
X125620171Y-62818200D01*
X125763028Y-62746771D01*
X125905885Y-62746771D01*
X126191600Y-62746771D02*
X126763028Y-62746771D01*
X126405885Y-62246771D02*
X126405885Y-63532485D01*
X126477314Y-63675342D01*
X126620171Y-63746771D01*
X126763028Y-63746771D01*
D11*
X102971600Y-55524400D02*
X102971600Y-58699400D01*
X100101400Y-55524400D02*
X102971600Y-55524400D01*
X131191000Y-45364400D02*
X133883400Y-45364400D01*
X131191000Y-42824400D02*
X131191000Y-45364400D01*
D10*
X108627171Y-55194400D02*
X108627171Y-54337257D01*
X110127171Y-54765828D02*
X108627171Y-54765828D01*
X108627171Y-53980114D02*
X110127171Y-52980114D01*
X108627171Y-52980114D02*
X110127171Y-53980114D01*
X109341457Y-51908685D02*
X109412885Y-51694400D01*
X109484314Y-51622971D01*
X109627171Y-51551542D01*
X109841457Y-51551542D01*
X109984314Y-51622971D01*
X110055742Y-51694400D01*
X110127171Y-51837257D01*
X110127171Y-52408685D01*
X108627171Y-52408685D01*
X108627171Y-51908685D01*
X108698600Y-51765828D01*
X108770028Y-51694400D01*
X108912885Y-51622971D01*
X109055742Y-51622971D01*
X109198600Y-51694400D01*
X109270028Y-51765828D01*
X109341457Y-51908685D01*
X109341457Y-52408685D01*
X108627171Y-50622971D02*
X108627171Y-50480114D01*
X108698600Y-50337257D01*
X108770028Y-50265828D01*
X108912885Y-50194400D01*
X109198600Y-50122971D01*
X109555742Y-50122971D01*
X109841457Y-50194400D01*
X109984314Y-50265828D01*
X110055742Y-50337257D01*
X110127171Y-50480114D01*
X110127171Y-50622971D01*
X110055742Y-50765828D01*
X109984314Y-50837257D01*
X109841457Y-50908685D01*
X109555742Y-50980114D01*
X109198600Y-50980114D01*
X108912885Y-50908685D01*
X108770028Y-50837257D01*
X108698600Y-50765828D01*
X108627171Y-50622971D01*
X110127171Y-48694400D02*
X110127171Y-49551542D01*
X110127171Y-49122971D02*
X108627171Y-49122971D01*
X108841457Y-49265828D01*
X108984314Y-49408685D01*
X109055742Y-49551542D01*
X108627171Y-47765828D02*
X108627171Y-47622971D01*
X108698600Y-47480114D01*
X108770028Y-47408685D01*
X108912885Y-47337257D01*
X109198600Y-47265828D01*
X109555742Y-47265828D01*
X109841457Y-47337257D01*
X109984314Y-47408685D01*
X110055742Y-47480114D01*
X110127171Y-47622971D01*
X110127171Y-47765828D01*
X110055742Y-47908685D01*
X109984314Y-47980114D01*
X109841457Y-48051542D01*
X109555742Y-48122971D01*
X109198600Y-48122971D01*
X108912885Y-48051542D01*
X108770028Y-47980114D01*
X108698600Y-47908685D01*
X108627171Y-47765828D01*
X109127171Y-45980114D02*
X110127171Y-45980114D01*
X108555742Y-46337257D02*
X109627171Y-46694400D01*
X109627171Y-45765828D01*
X128439171Y-55419000D02*
X129939171Y-55061857D01*
X128867742Y-54776142D01*
X129939171Y-54490428D01*
X128439171Y-54133285D01*
X128582028Y-53633285D02*
X128510600Y-53561857D01*
X128439171Y-53419000D01*
X128439171Y-53061857D01*
X128510600Y-52919000D01*
X128582028Y-52847571D01*
X128724885Y-52776142D01*
X128867742Y-52776142D01*
X129082028Y-52847571D01*
X129939171Y-53704714D01*
X129939171Y-52776142D01*
X128439171Y-51419000D02*
X128439171Y-52133285D01*
X129153457Y-52204714D01*
X129082028Y-52133285D01*
X129010600Y-51990428D01*
X129010600Y-51633285D01*
X129082028Y-51490428D01*
X129153457Y-51419000D01*
X129296314Y-51347571D01*
X129653457Y-51347571D01*
X129796314Y-51419000D01*
X129867742Y-51490428D01*
X129939171Y-51633285D01*
X129939171Y-51990428D01*
X129867742Y-52133285D01*
X129796314Y-52204714D01*
X130082028Y-49704714D02*
X130010600Y-49847571D01*
X129867742Y-49990428D01*
X129653457Y-50204714D01*
X129582028Y-50347571D01*
X129582028Y-50490428D01*
X129939171Y-50419000D02*
X129867742Y-50561857D01*
X129724885Y-50704714D01*
X129439171Y-50776142D01*
X128939171Y-50776142D01*
X128653457Y-50704714D01*
X128510600Y-50561857D01*
X128439171Y-50419000D01*
X128439171Y-50133285D01*
X128510600Y-49990428D01*
X128653457Y-49847571D01*
X128939171Y-49776142D01*
X129439171Y-49776142D01*
X129724885Y-49847571D01*
X129867742Y-49990428D01*
X129939171Y-50133285D01*
X129939171Y-50419000D01*
X129939171Y-48347571D02*
X129939171Y-49204714D01*
X129939171Y-48776142D02*
X128439171Y-48776142D01*
X128653457Y-48919000D01*
X128796314Y-49061857D01*
X128867742Y-49204714D01*
X128582028Y-47776142D02*
X128510600Y-47704714D01*
X128439171Y-47561857D01*
X128439171Y-47204714D01*
X128510600Y-47061857D01*
X128582028Y-46990428D01*
X128724885Y-46919000D01*
X128867742Y-46919000D01*
X129082028Y-46990428D01*
X129939171Y-47847571D01*
X129939171Y-46919000D01*
X129082028Y-46061857D02*
X129010600Y-46204714D01*
X128939171Y-46276142D01*
X128796314Y-46347571D01*
X128724885Y-46347571D01*
X128582028Y-46276142D01*
X128510600Y-46204714D01*
X128439171Y-46061857D01*
X128439171Y-45776142D01*
X128510600Y-45633285D01*
X128582028Y-45561857D01*
X128724885Y-45490428D01*
X128796314Y-45490428D01*
X128939171Y-45561857D01*
X129010600Y-45633285D01*
X129082028Y-45776142D01*
X129082028Y-46061857D01*
X129153457Y-46204714D01*
X129224885Y-46276142D01*
X129367742Y-46347571D01*
X129653457Y-46347571D01*
X129796314Y-46276142D01*
X129867742Y-46204714D01*
X129939171Y-46061857D01*
X129939171Y-45776142D01*
X129867742Y-45633285D01*
X129796314Y-45561857D01*
X129653457Y-45490428D01*
X129367742Y-45490428D01*
X129224885Y-45561857D01*
X129153457Y-45633285D01*
X129082028Y-45776142D01*
D12*
G04 #@! TO.C,U1*
X133883400Y-58051700D02*
X133883400Y-42811700D01*
X133883400Y-42811700D02*
X119481600Y-42811700D01*
X119481600Y-42811700D02*
X119481600Y-58051700D01*
X119481600Y-58051700D02*
X133883400Y-58051700D01*
G04 #@! TO.C,U2*
X100088700Y-42151300D02*
X100088700Y-58737500D01*
X100088700Y-58737500D02*
X118808500Y-58750200D01*
X118808500Y-58750200D02*
X118808500Y-42164000D01*
X118808500Y-42164000D02*
X100088700Y-42151300D01*
G04 #@! TD*
M02*
