G04 #@! TF.GenerationSoftware,KiCad,Pcbnew,5.0.2+dfsg1-1~bpo9+1*
G04 #@! TF.CreationDate,2019-06-22T18:26:22+01:00*
G04 #@! TF.ProjectId,arduboy_with_flashcart_port_smd,61726475-626f-4795-9f77-6974685f666c,rev?*
G04 #@! TF.SameCoordinates,Original*
G04 #@! TF.FileFunction,Legend,Top*
G04 #@! TF.FilePolarity,Positive*
%FSLAX46Y46*%
G04 Gerber Fmt 4.6, Leading zero omitted, Abs format (unit mm)*
G04 Created by KiCad (PCBNEW 5.0.2+dfsg1-1~bpo9+1) date Sat 22 Jun 2019 18:26:23 BST*
%MOMM*%
%LPD*%
G01*
G04 APERTURE LIST*
%ADD10C,0.300000*%
%ADD11C,0.250000*%
%ADD12C,0.150000*%
G04 APERTURE END LIST*
D10*
X233142600Y-78389442D02*
X233142600Y-77675157D01*
X233571171Y-78532300D02*
X232071171Y-78032300D01*
X233571171Y-77532300D01*
X233571171Y-77032300D02*
X232571171Y-77032300D01*
X232856885Y-77032300D02*
X232714028Y-76960871D01*
X232642600Y-76889442D01*
X232571171Y-76746585D01*
X232571171Y-76603728D01*
X233571171Y-75460871D02*
X232071171Y-75460871D01*
X233499742Y-75460871D02*
X233571171Y-75603728D01*
X233571171Y-75889442D01*
X233499742Y-76032300D01*
X233428314Y-76103728D01*
X233285457Y-76175157D01*
X232856885Y-76175157D01*
X232714028Y-76103728D01*
X232642600Y-76032300D01*
X232571171Y-75889442D01*
X232571171Y-75603728D01*
X232642600Y-75460871D01*
X232571171Y-74103728D02*
X233571171Y-74103728D01*
X232571171Y-74746585D02*
X233356885Y-74746585D01*
X233499742Y-74675157D01*
X233571171Y-74532300D01*
X233571171Y-74318014D01*
X233499742Y-74175157D01*
X233428314Y-74103728D01*
X233571171Y-73389442D02*
X232071171Y-73389442D01*
X232642600Y-73389442D02*
X232571171Y-73246585D01*
X232571171Y-72960871D01*
X232642600Y-72818014D01*
X232714028Y-72746585D01*
X232856885Y-72675157D01*
X233285457Y-72675157D01*
X233428314Y-72746585D01*
X233499742Y-72818014D01*
X233571171Y-72960871D01*
X233571171Y-73246585D01*
X233499742Y-73389442D01*
X233571171Y-71818014D02*
X233499742Y-71960871D01*
X233428314Y-72032300D01*
X233285457Y-72103728D01*
X232856885Y-72103728D01*
X232714028Y-72032300D01*
X232642600Y-71960871D01*
X232571171Y-71818014D01*
X232571171Y-71603728D01*
X232642600Y-71460871D01*
X232714028Y-71389442D01*
X232856885Y-71318014D01*
X233285457Y-71318014D01*
X233428314Y-71389442D01*
X233499742Y-71460871D01*
X233571171Y-71603728D01*
X233571171Y-71818014D01*
X232571171Y-70818014D02*
X233571171Y-70460871D01*
X232571171Y-70103728D02*
X233571171Y-70460871D01*
X233928314Y-70603728D01*
X233999742Y-70675157D01*
X234071171Y-70818014D01*
X236582757Y-84103728D02*
X236582757Y-84603728D01*
X237368471Y-84603728D02*
X235868471Y-84603728D01*
X235868471Y-83889442D01*
X237368471Y-82675157D02*
X236582757Y-82675157D01*
X236439900Y-82746585D01*
X236368471Y-82889442D01*
X236368471Y-83175157D01*
X236439900Y-83318014D01*
X237297042Y-82675157D02*
X237368471Y-82818014D01*
X237368471Y-83175157D01*
X237297042Y-83318014D01*
X237154185Y-83389442D01*
X237011328Y-83389442D01*
X236868471Y-83318014D01*
X236797042Y-83175157D01*
X236797042Y-82818014D01*
X236725614Y-82675157D01*
X237297042Y-81318014D02*
X237368471Y-81460871D01*
X237368471Y-81746585D01*
X237297042Y-81889442D01*
X237225614Y-81960871D01*
X237082757Y-82032300D01*
X236654185Y-82032300D01*
X236511328Y-81960871D01*
X236439900Y-81889442D01*
X236368471Y-81746585D01*
X236368471Y-81460871D01*
X236439900Y-81318014D01*
X237297042Y-80103728D02*
X237368471Y-80246585D01*
X237368471Y-80532300D01*
X237297042Y-80675157D01*
X237154185Y-80746585D01*
X236582757Y-80746585D01*
X236439900Y-80675157D01*
X236368471Y-80532300D01*
X236368471Y-80246585D01*
X236439900Y-80103728D01*
X236582757Y-80032300D01*
X236725614Y-80032300D01*
X236868471Y-80746585D01*
X237368471Y-79175157D02*
X237297042Y-79318014D01*
X237154185Y-79389442D01*
X235868471Y-79389442D01*
X237297042Y-78032300D02*
X237368471Y-78175157D01*
X237368471Y-78460871D01*
X237297042Y-78603728D01*
X237154185Y-78675157D01*
X236582757Y-78675157D01*
X236439900Y-78603728D01*
X236368471Y-78460871D01*
X236368471Y-78175157D01*
X236439900Y-78032300D01*
X236582757Y-77960871D01*
X236725614Y-77960871D01*
X236868471Y-78675157D01*
X237297042Y-77389442D02*
X237368471Y-77246585D01*
X237368471Y-76960871D01*
X237297042Y-76818014D01*
X237154185Y-76746585D01*
X237082757Y-76746585D01*
X236939900Y-76818014D01*
X236868471Y-76960871D01*
X236868471Y-77175157D01*
X236797042Y-77318014D01*
X236654185Y-77389442D01*
X236582757Y-77389442D01*
X236439900Y-77318014D01*
X236368471Y-77175157D01*
X236368471Y-76960871D01*
X236439900Y-76818014D01*
X237297042Y-76175157D02*
X237368471Y-76032300D01*
X237368471Y-75746585D01*
X237297042Y-75603728D01*
X237154185Y-75532300D01*
X237082757Y-75532300D01*
X236939900Y-75603728D01*
X236868471Y-75746585D01*
X236868471Y-75960871D01*
X236797042Y-76103728D01*
X236654185Y-76175157D01*
X236582757Y-76175157D01*
X236439900Y-76103728D01*
X236368471Y-75960871D01*
X236368471Y-75746585D01*
X236439900Y-75603728D01*
X236368471Y-75103728D02*
X236368471Y-74532300D01*
X235868471Y-74889442D02*
X237154185Y-74889442D01*
X237297042Y-74818014D01*
X237368471Y-74675157D01*
X237368471Y-74532300D01*
X237297042Y-73460871D02*
X237368471Y-73603728D01*
X237368471Y-73889442D01*
X237297042Y-74032300D01*
X237154185Y-74103728D01*
X236582757Y-74103728D01*
X236439900Y-74032300D01*
X236368471Y-73889442D01*
X236368471Y-73603728D01*
X236439900Y-73460871D01*
X236582757Y-73389442D01*
X236725614Y-73389442D01*
X236868471Y-74103728D01*
X237297042Y-72103728D02*
X237368471Y-72246585D01*
X237368471Y-72532300D01*
X237297042Y-72675157D01*
X237225614Y-72746585D01*
X237082757Y-72818014D01*
X236654185Y-72818014D01*
X236511328Y-72746585D01*
X236439900Y-72675157D01*
X236368471Y-72532300D01*
X236368471Y-72246585D01*
X236439900Y-72103728D01*
X237368471Y-71460871D02*
X235868471Y-71460871D01*
X237368471Y-70818014D02*
X236582757Y-70818014D01*
X236439900Y-70889442D01*
X236368471Y-71032300D01*
X236368471Y-71246585D01*
X236439900Y-71389442D01*
X236511328Y-71460871D01*
X236011328Y-69032300D02*
X235939900Y-68960871D01*
X235868471Y-68818014D01*
X235868471Y-68460871D01*
X235939900Y-68318014D01*
X236011328Y-68246585D01*
X236154185Y-68175157D01*
X236297042Y-68175157D01*
X236511328Y-68246585D01*
X237368471Y-69103728D01*
X237368471Y-68175157D01*
X235868471Y-67246585D02*
X235868471Y-67103728D01*
X235939900Y-66960871D01*
X236011328Y-66889442D01*
X236154185Y-66818014D01*
X236439900Y-66746585D01*
X236797042Y-66746585D01*
X237082757Y-66818014D01*
X237225614Y-66889442D01*
X237297042Y-66960871D01*
X237368471Y-67103728D01*
X237368471Y-67246585D01*
X237297042Y-67389442D01*
X237225614Y-67460871D01*
X237082757Y-67532300D01*
X236797042Y-67603728D01*
X236439900Y-67603728D01*
X236154185Y-67532300D01*
X236011328Y-67460871D01*
X235939900Y-67389442D01*
X235868471Y-67246585D01*
X237368471Y-65318014D02*
X237368471Y-66175157D01*
X237368471Y-65746585D02*
X235868471Y-65746585D01*
X236082757Y-65889442D01*
X236225614Y-66032300D01*
X236297042Y-66175157D01*
X237368471Y-64603728D02*
X237368471Y-64318014D01*
X237297042Y-64175157D01*
X237225614Y-64103728D01*
X237011328Y-63960871D01*
X236725614Y-63889442D01*
X236154185Y-63889442D01*
X236011328Y-63960871D01*
X235939900Y-64032300D01*
X235868471Y-64175157D01*
X235868471Y-64460871D01*
X235939900Y-64603728D01*
X236011328Y-64675157D01*
X236154185Y-64746585D01*
X236511328Y-64746585D01*
X236654185Y-64675157D01*
X236725614Y-64603728D01*
X236797042Y-64460871D01*
X236797042Y-64175157D01*
X236725614Y-64032300D01*
X236654185Y-63960871D01*
X236511328Y-63889442D01*
D11*
X190976404Y-88082380D02*
X190643071Y-87606190D01*
X190404976Y-88082380D02*
X190404976Y-87082380D01*
X190785928Y-87082380D01*
X190881166Y-87130000D01*
X190928785Y-87177619D01*
X190976404Y-87272857D01*
X190976404Y-87415714D01*
X190928785Y-87510952D01*
X190881166Y-87558571D01*
X190785928Y-87606190D01*
X190404976Y-87606190D01*
X191785928Y-88034761D02*
X191690690Y-88082380D01*
X191500214Y-88082380D01*
X191404976Y-88034761D01*
X191357357Y-87939523D01*
X191357357Y-87558571D01*
X191404976Y-87463333D01*
X191500214Y-87415714D01*
X191690690Y-87415714D01*
X191785928Y-87463333D01*
X191833547Y-87558571D01*
X191833547Y-87653809D01*
X191357357Y-87749047D01*
X192214500Y-88034761D02*
X192309738Y-88082380D01*
X192500214Y-88082380D01*
X192595452Y-88034761D01*
X192643071Y-87939523D01*
X192643071Y-87891904D01*
X192595452Y-87796666D01*
X192500214Y-87749047D01*
X192357357Y-87749047D01*
X192262119Y-87701428D01*
X192214500Y-87606190D01*
X192214500Y-87558571D01*
X192262119Y-87463333D01*
X192357357Y-87415714D01*
X192500214Y-87415714D01*
X192595452Y-87463333D01*
X193452595Y-88034761D02*
X193357357Y-88082380D01*
X193166880Y-88082380D01*
X193071642Y-88034761D01*
X193024023Y-87939523D01*
X193024023Y-87558571D01*
X193071642Y-87463333D01*
X193166880Y-87415714D01*
X193357357Y-87415714D01*
X193452595Y-87463333D01*
X193500214Y-87558571D01*
X193500214Y-87653809D01*
X193024023Y-87749047D01*
X193785928Y-87415714D02*
X194166880Y-87415714D01*
X193928785Y-87082380D02*
X193928785Y-87939523D01*
X193976404Y-88034761D01*
X194071642Y-88082380D01*
X194166880Y-88082380D01*
D10*
X198932728Y-101946828D02*
X197789871Y-101518257D01*
X198932728Y-101089685D01*
X200482271Y-101075371D02*
X201625128Y-101503942D01*
X200482271Y-101932514D01*
X200130528Y-102171571D02*
X199701957Y-103314428D01*
X199273385Y-102171571D01*
X199284471Y-100850628D02*
X199713042Y-99707771D01*
X200141614Y-100850628D01*
X226713242Y-97276457D02*
X226927528Y-97347885D01*
X226998957Y-97419314D01*
X227070385Y-97562171D01*
X227070385Y-97776457D01*
X226998957Y-97919314D01*
X226927528Y-97990742D01*
X226784671Y-98062171D01*
X226213242Y-98062171D01*
X226213242Y-96562171D01*
X226713242Y-96562171D01*
X226856100Y-96633600D01*
X226927528Y-96705028D01*
X226998957Y-96847885D01*
X226998957Y-96990742D01*
X226927528Y-97133600D01*
X226856100Y-97205028D01*
X226713242Y-97276457D01*
X226213242Y-97276457D01*
X233970557Y-89835800D02*
X234684842Y-89835800D01*
X233827700Y-90264371D02*
X234327700Y-88764371D01*
X234827700Y-90264371D01*
X194692700Y-115561371D02*
X194692700Y-116775657D01*
X194764128Y-116918514D01*
X194835557Y-116989942D01*
X194978414Y-117061371D01*
X195264128Y-117061371D01*
X195406985Y-116989942D01*
X195478414Y-116918514D01*
X195549842Y-116775657D01*
X195549842Y-115561371D01*
X196264128Y-116061371D02*
X196264128Y-117061371D01*
X196264128Y-116204228D02*
X196335557Y-116132800D01*
X196478414Y-116061371D01*
X196692700Y-116061371D01*
X196835557Y-116132800D01*
X196906985Y-116275657D01*
X196906985Y-117061371D01*
X197621271Y-117061371D02*
X197621271Y-116061371D01*
X197621271Y-116204228D02*
X197692700Y-116132800D01*
X197835557Y-116061371D01*
X198049842Y-116061371D01*
X198192700Y-116132800D01*
X198264128Y-116275657D01*
X198264128Y-117061371D01*
X198264128Y-116275657D02*
X198335557Y-116132800D01*
X198478414Y-116061371D01*
X198692700Y-116061371D01*
X198835557Y-116132800D01*
X198906985Y-116275657D01*
X198906985Y-117061371D01*
X200264128Y-116061371D02*
X200264128Y-117061371D01*
X199621271Y-116061371D02*
X199621271Y-116847085D01*
X199692700Y-116989942D01*
X199835557Y-117061371D01*
X200049842Y-117061371D01*
X200192700Y-116989942D01*
X200264128Y-116918514D01*
X200764128Y-116061371D02*
X201335557Y-116061371D01*
X200978414Y-115561371D02*
X200978414Y-116847085D01*
X201049842Y-116989942D01*
X201192700Y-117061371D01*
X201335557Y-117061371D01*
X202406985Y-116989942D02*
X202264128Y-117061371D01*
X201978414Y-117061371D01*
X201835557Y-116989942D01*
X201764128Y-116847085D01*
X201764128Y-116275657D01*
X201835557Y-116132800D01*
X201978414Y-116061371D01*
X202264128Y-116061371D01*
X202406985Y-116132800D01*
X202478414Y-116275657D01*
X202478414Y-116418514D01*
X201764128Y-116561371D01*
X204192700Y-115489942D02*
X202906985Y-117418514D01*
X204692700Y-117061371D02*
X204692700Y-115561371D01*
X205192700Y-116632800D01*
X205692700Y-115561371D01*
X205692700Y-117061371D01*
X207049842Y-116061371D02*
X207049842Y-117061371D01*
X206406985Y-116061371D02*
X206406985Y-116847085D01*
X206478414Y-116989942D01*
X206621271Y-117061371D01*
X206835557Y-117061371D01*
X206978414Y-116989942D01*
X207049842Y-116918514D01*
X207549842Y-116061371D02*
X208121271Y-116061371D01*
X207764128Y-115561371D02*
X207764128Y-116847085D01*
X207835557Y-116989942D01*
X207978414Y-117061371D01*
X208121271Y-117061371D01*
X209192700Y-116989942D02*
X209049842Y-117061371D01*
X208764128Y-117061371D01*
X208621271Y-116989942D01*
X208549842Y-116847085D01*
X208549842Y-116275657D01*
X208621271Y-116132800D01*
X208764128Y-116061371D01*
X209049842Y-116061371D01*
X209192700Y-116132800D01*
X209264128Y-116275657D01*
X209264128Y-116418514D01*
X208549842Y-116561371D01*
D12*
G04 #@! TO.C,LS1*
X218528900Y-106006900D02*
X226593400Y-106006900D01*
X226593400Y-106006900D02*
X226593400Y-122135900D01*
X226593400Y-122135900D02*
X210464400Y-122135900D01*
X210464400Y-122135900D02*
X210464400Y-106006900D01*
X210464400Y-106006900D02*
X218528900Y-106006900D01*
G04 #@! TO.C,SW2*
X188823600Y-98691700D02*
X194792600Y-98691700D01*
X194792600Y-98691700D02*
X194792600Y-104660700D01*
X194792600Y-104660700D02*
X188823600Y-104660700D01*
X188823600Y-104660700D02*
X188823600Y-98691700D01*
G04 #@! TO.C,SW3*
X196621400Y-90970100D02*
X202590400Y-90970100D01*
X202590400Y-90970100D02*
X202590400Y-96939100D01*
X202590400Y-96939100D02*
X196621400Y-96939100D01*
X196621400Y-96939100D02*
X196621400Y-90970100D01*
G04 #@! TO.C,SW4*
X196596000Y-112560100D02*
X196596000Y-106591100D01*
X202565000Y-112560100D02*
X196596000Y-112560100D01*
X202565000Y-106591100D02*
X202565000Y-112560100D01*
X196596000Y-106591100D02*
X202565000Y-106591100D01*
G04 #@! TO.C,SW5*
X204368400Y-104609900D02*
X204368400Y-98640900D01*
X210337400Y-104609900D02*
X204368400Y-104609900D01*
X210337400Y-98640900D02*
X210337400Y-104609900D01*
X204368400Y-98640900D02*
X210337400Y-98640900D01*
G04 #@! TO.C,SW6*
X223494600Y-98691700D02*
X229463600Y-98691700D01*
X229463600Y-98691700D02*
X229463600Y-104660700D01*
X229463600Y-104660700D02*
X223494600Y-104660700D01*
X223494600Y-104660700D02*
X223494600Y-98691700D01*
G04 #@! TO.C,SW7*
X231267000Y-96888300D02*
X231267000Y-90919300D01*
X237236000Y-96888300D02*
X231267000Y-96888300D01*
X237236000Y-90919300D02*
X237236000Y-96888300D01*
X231267000Y-90919300D02*
X237236000Y-90919300D01*
G04 #@! TO.C,SW1*
X198602600Y-120142000D02*
X205409800Y-120142000D01*
X205409800Y-120142000D02*
X205409800Y-122897900D01*
X198602600Y-120142000D02*
X198602600Y-122897900D01*
X198602600Y-122897900D02*
X205409800Y-122897900D01*
X202145900Y-122910600D02*
X202145900Y-124625100D01*
X202145900Y-124637800D02*
X203454000Y-124637800D01*
X203454000Y-124637800D02*
X203454000Y-122910600D01*
X201904600Y-122897900D02*
X201904600Y-124637800D01*
X201904600Y-124637800D02*
X200596500Y-124637800D01*
X200596500Y-124637800D02*
X200596500Y-122897900D01*
G04 #@! TO.C,SW8*
X189166500Y-83566000D02*
X195262500Y-83566000D01*
X195262500Y-83566000D02*
X195262500Y-86614000D01*
X195262500Y-86614000D02*
X189166500Y-86614000D01*
X189166500Y-86614000D02*
X189166500Y-83566000D01*
X191198500Y-84582000D02*
X193230500Y-84582000D01*
X193230500Y-84582000D02*
X193230500Y-85598000D01*
X193230500Y-85598000D02*
X191198500Y-85598000D01*
X191198500Y-85598000D02*
X191198500Y-84582000D01*
G04 #@! TO.C,U4*
X198970900Y-57162700D02*
X227469700Y-57162700D01*
X227469700Y-57162700D02*
X227457000Y-85369400D01*
X198958200Y-57162700D02*
X198958200Y-85369400D01*
X198958200Y-85369400D02*
X227444300Y-85369400D01*
G04 #@! TO.C,U2*
X192407169Y-120015000D02*
G75*
G03X192407169Y-120015000I-3012069J0D01*
G01*
G04 #@! TO.C,U5*
X192407169Y-58547000D02*
G75*
G03X192407169Y-58547000I-3012069J0D01*
G01*
G04 #@! TO.C,U6*
X240082969Y-120015000D02*
G75*
G03X240082969Y-120015000I-3012069J0D01*
G01*
G04 #@! TO.C,U7*
X240082969Y-58521600D02*
G75*
G03X240082969Y-58521600I-3012069J0D01*
G01*
G04 #@! TO.C,LS1*
X217886042Y-116428780D02*
X217409852Y-116428780D01*
X217409852Y-115428780D01*
X218171757Y-116381161D02*
X218314614Y-116428780D01*
X218552709Y-116428780D01*
X218647947Y-116381161D01*
X218695566Y-116333542D01*
X218743185Y-116238304D01*
X218743185Y-116143066D01*
X218695566Y-116047828D01*
X218647947Y-116000209D01*
X218552709Y-115952590D01*
X218362233Y-115904971D01*
X218266995Y-115857352D01*
X218219376Y-115809733D01*
X218171757Y-115714495D01*
X218171757Y-115619257D01*
X218219376Y-115524019D01*
X218266995Y-115476400D01*
X218362233Y-115428780D01*
X218600328Y-115428780D01*
X218743185Y-115476400D01*
X219695566Y-116428780D02*
X219124138Y-116428780D01*
X219409852Y-116428780D02*
X219409852Y-115428780D01*
X219314614Y-115571638D01*
X219219376Y-115666876D01*
X219124138Y-115714495D01*
G04 #@! TO.C,U8*
X228765147Y-59520128D02*
X229527052Y-59520128D01*
X229146100Y-59901080D02*
X229146100Y-59139176D01*
X231305147Y-59583628D02*
X232067052Y-59583628D01*
G04 #@! TD*
M02*
