G04 #@! TF.GenerationSoftware,KiCad,Pcbnew,5.0.2+dfsg1-1~bpo9+1*
G04 #@! TF.CreationDate,2019-06-22T18:26:22+01:00*
G04 #@! TF.ProjectId,arduboy_with_flashcart_port_smd,61726475-626f-4795-9f77-6974685f666c,rev?*
G04 #@! TF.SameCoordinates,Original*
G04 #@! TF.FileFunction,Copper,L1,Top*
G04 #@! TF.FilePolarity,Positive*
%FSLAX46Y46*%
G04 Gerber Fmt 4.6, Leading zero omitted, Abs format (unit mm)*
G04 Created by KiCad (PCBNEW 5.0.2+dfsg1-1~bpo9+1) date Sat 22 Jun 2019 18:26:22 BST*
%MOMM*%
%LPD*%
G01*
G04 APERTURE LIST*
G04 #@! TA.AperFunction,ComponentPad*
%ADD10C,1.600000*%
G04 #@! TD*
G04 #@! TA.AperFunction,SMDPad,CuDef*
%ADD11R,1.524000X3.000000*%
G04 #@! TD*
G04 #@! TA.AperFunction,SMDPad,CuDef*
%ADD12R,2.000000X1.500000*%
G04 #@! TD*
G04 #@! TA.AperFunction,SMDPad,CuDef*
%ADD13R,0.800000X2.000000*%
G04 #@! TD*
G04 #@! TA.AperFunction,SMDPad,CuDef*
%ADD14R,1.500000X0.800000*%
G04 #@! TD*
G04 #@! TA.AperFunction,SMDPad,CuDef*
%ADD15R,1.524000X1.524000*%
G04 #@! TD*
G04 #@! TA.AperFunction,ComponentPad*
%ADD16C,3.500000*%
G04 #@! TD*
G04 #@! TA.AperFunction,ViaPad*
%ADD17C,0.800000*%
G04 #@! TD*
G04 #@! TA.AperFunction,Conductor*
%ADD18C,0.250000*%
G04 #@! TD*
G04 APERTURE END LIST*
D10*
G04 #@! TO.P,U1,3*
G04 #@! TO.N,Net-(U1-Pad3)*
X213220300Y-88112600D03*
G04 #@! TO.P,U1,4*
G04 #@! TO.N,Net-(U1-Pad4)*
X215760300Y-88112600D03*
G04 #@! TO.P,U1,5*
G04 #@! TO.N,Net-(U1-Pad5)*
X218300300Y-88112600D03*
G04 #@! TO.P,U1,6*
G04 #@! TO.N,Net-(U1-Pad6)*
X220840300Y-88112600D03*
G04 #@! TO.P,U1,1*
G04 #@! TO.N,Net-(U1-Pad1)*
X205600300Y-88112600D03*
G04 #@! TO.P,U1,2*
G04 #@! TO.N,Net-(LS1-Pad1)*
X208140300Y-88112600D03*
G04 #@! TD*
D11*
G04 #@! TO.P,LS1,1*
G04 #@! TO.N,Net-(LS1-Pad1)*
X226847400Y-114007900D03*
G04 #@! TO.P,LS1,2*
G04 #@! TO.N,Net-(LS1-Pad2)*
X210146900Y-114007900D03*
G04 #@! TD*
D12*
G04 #@! TO.P,SW2,1*
G04 #@! TO.N,Net-(LS1-Pad1)*
X194792600Y-101676200D03*
G04 #@! TO.P,SW2,2*
G04 #@! TO.N,Net-(SW2-Pad2)*
X188823600Y-101676200D03*
G04 #@! TD*
G04 #@! TO.P,SW3,1*
G04 #@! TO.N,Net-(LS1-Pad1)*
X202590400Y-93954600D03*
G04 #@! TO.P,SW3,2*
G04 #@! TO.N,Net-(SW3-Pad2)*
X196621400Y-93954600D03*
G04 #@! TD*
G04 #@! TO.P,SW4,2*
G04 #@! TO.N,Net-(SW4-Pad2)*
X196596000Y-109575600D03*
G04 #@! TO.P,SW4,1*
G04 #@! TO.N,Net-(LS1-Pad1)*
X202565000Y-109575600D03*
G04 #@! TD*
G04 #@! TO.P,SW5,2*
G04 #@! TO.N,Net-(SW5-Pad2)*
X204368400Y-101625400D03*
G04 #@! TO.P,SW5,1*
G04 #@! TO.N,Net-(LS1-Pad1)*
X210337400Y-101625400D03*
G04 #@! TD*
G04 #@! TO.P,SW6,1*
G04 #@! TO.N,Net-(LS1-Pad1)*
X229463600Y-101676200D03*
G04 #@! TO.P,SW6,2*
G04 #@! TO.N,Net-(SW6-Pad2)*
X223494600Y-101676200D03*
G04 #@! TD*
G04 #@! TO.P,SW7,2*
G04 #@! TO.N,Net-(SW7-Pad2)*
X231267000Y-93903800D03*
G04 #@! TO.P,SW7,1*
G04 #@! TO.N,Net-(LS1-Pad1)*
X237236000Y-93903800D03*
G04 #@! TD*
D13*
G04 #@! TO.P,SW1,1*
G04 #@! TO.N,Net-(SW1-Pad1)*
X199656700Y-119138700D03*
G04 #@! TO.P,SW1,3*
G04 #@! TO.N,Net-(SW1-Pad3)*
X204368400Y-119138700D03*
G04 #@! TO.P,SW1,2*
G04 #@! TO.N,Net-(LS1-Pad2)*
X202666600Y-119138700D03*
D14*
G04 #@! TO.P,SW1,4*
G04 #@! TO.N,N/C*
X206095600Y-120472200D03*
X206082900Y-122580400D03*
X197929500Y-120459500D03*
X197929500Y-122580400D03*
G04 #@! TD*
D15*
G04 #@! TO.P,SW8,1*
G04 #@! TO.N,Net-(SW8-Pad1)*
X196024500Y-85090000D03*
G04 #@! TO.P,SW8,2*
G04 #@! TO.N,Net-(LS1-Pad1)*
X188404500Y-85090000D03*
G04 #@! TD*
D10*
G04 #@! TO.P,U4,4*
G04 #@! TO.N,Net-(U1-Pad5)*
X213220300Y-58851800D03*
G04 #@! TO.P,U4,3*
G04 #@! TO.N,Net-(U1-Pad4)*
X210680300Y-58851800D03*
G04 #@! TO.P,U4,2*
G04 #@! TO.N,Net-(U1-Pad1)*
X208140300Y-58851800D03*
G04 #@! TO.P,U4,1*
G04 #@! TO.N,Net-(LS1-Pad1)*
X205600300Y-58851800D03*
G04 #@! TO.P,U4,5*
G04 #@! TO.N,Net-(U3-Pad9)*
X215760300Y-58851800D03*
G04 #@! TO.P,U4,6*
G04 #@! TO.N,Net-(U3-Pad7)*
X218300300Y-58851800D03*
G04 #@! TO.P,U4,7*
G04 #@! TO.N,Net-(LS1-Pad1)*
X220840300Y-58851800D03*
G04 #@! TD*
D16*
G04 #@! TO.P,U2,1*
G04 #@! TO.N,Net-(U2-Pad1)*
X189395100Y-120015000D03*
G04 #@! TD*
G04 #@! TO.P,U5,1*
G04 #@! TO.N,Net-(U5-Pad1)*
X189395100Y-58547000D03*
G04 #@! TD*
G04 #@! TO.P,U6,1*
G04 #@! TO.N,Net-(U6-Pad1)*
X237070900Y-120015000D03*
G04 #@! TD*
G04 #@! TO.P,U7,1*
G04 #@! TO.N,Net-(U7-Pad1)*
X237070900Y-58521600D03*
G04 #@! TD*
D10*
G04 #@! TO.P,U8,1*
G04 #@! TO.N,Net-(LS1-Pad1)*
X231686100Y-57988200D03*
G04 #@! TO.P,U8,2*
G04 #@! TO.N,Net-(U1-Pad1)*
X229146100Y-57988200D03*
G04 #@! TD*
D17*
G04 #@! TO.N,Net-(U1-Pad3)*
X202044300Y-76530200D03*
G04 #@! TO.N,Net-(LS1-Pad1)*
X190131700Y-85217000D03*
X196761100Y-101727000D03*
X204660500Y-109855000D03*
X212483700Y-102108000D03*
X200215500Y-94386400D03*
X231990900Y-102489000D03*
X227876100Y-116763800D03*
X235546900Y-95554800D03*
G04 #@! TO.N,Net-(U1-Pad5)*
X215404700Y-77673200D03*
X215658700Y-82346800D03*
G04 #@! TO.N,Net-(U1-Pad6)*
X214363300Y-81534000D03*
G04 #@! TO.N,Net-(U1-Pad1)*
X197904100Y-77825600D03*
X197980300Y-82575400D03*
G04 #@! TO.N,Net-(SW1-Pad1)*
X197446900Y-117881400D03*
G04 #@! TO.N,Net-(SW2-Pad2)*
X200240900Y-87401400D03*
G04 #@! TO.N,Net-(SW3-Pad2)*
X207937100Y-84607400D03*
G04 #@! TO.N,Net-(SW4-Pad2)*
X198412100Y-89281000D03*
G04 #@! TO.N,Net-(SW5-Pad2)*
X211162900Y-89636600D03*
G04 #@! TO.N,Net-(SW6-Pad2)*
X215887300Y-62280800D03*
G04 #@! TO.N,Net-(SW7-Pad2)*
X225234500Y-69215000D03*
G04 #@! TO.N,Net-(SW8-Pad1)*
X195389500Y-82143600D03*
G04 #@! TO.N,Net-(U3-Pad7)*
X205244700Y-62280800D03*
G04 #@! TO.N,Net-(U1-Pad4)*
X210553300Y-77978000D03*
X210731100Y-82600800D03*
G04 #@! TD*
D18*
G04 #@! TO.N,Net-(U1-Pad3)*
X202044300Y-76936600D02*
X202044300Y-76530200D01*
X213220300Y-88112600D02*
X202044300Y-76936600D01*
G04 #@! TO.N,Net-(LS1-Pad1)*
X190004700Y-85090000D02*
X190131700Y-85217000D01*
X188404500Y-85090000D02*
X190004700Y-85090000D01*
X196710300Y-101676200D02*
X196761100Y-101727000D01*
X194792600Y-101676200D02*
X196710300Y-101676200D01*
X204381100Y-109575600D02*
X204660500Y-109855000D01*
X202565000Y-109575600D02*
X204381100Y-109575600D01*
X212001100Y-101625400D02*
X212483700Y-102108000D01*
X210337400Y-101625400D02*
X212001100Y-101625400D01*
X200647300Y-93954600D02*
X200215500Y-94386400D01*
X202590400Y-93954600D02*
X200647300Y-93954600D01*
X231178100Y-101676200D02*
X231990900Y-102489000D01*
X229463600Y-101676200D02*
X231178100Y-101676200D01*
X227876100Y-115774600D02*
X227876100Y-116763800D01*
X226847400Y-114745900D02*
X227876100Y-115774600D01*
X226847400Y-114007900D02*
X226847400Y-114745900D01*
X237197900Y-93903800D02*
X235546900Y-95554800D01*
X237236000Y-93903800D02*
X237197900Y-93903800D01*
G04 #@! TO.N,Net-(U1-Pad5)*
X213220300Y-75488800D02*
X215404700Y-77673200D01*
X213220300Y-58851800D02*
X213220300Y-75488800D01*
X218300300Y-84988400D02*
X215658700Y-82346800D01*
X218300300Y-88112600D02*
X218300300Y-84988400D01*
G04 #@! TO.N,Net-(U1-Pad6)*
X220840300Y-88112600D02*
X220840300Y-85750400D01*
X220840300Y-85750400D02*
X216623900Y-81534000D01*
X216623900Y-81534000D02*
X214363300Y-81534000D01*
G04 #@! TO.N,Net-(U1-Pad1)*
X208140300Y-67589400D02*
X197904100Y-77825600D01*
X203517500Y-88112600D02*
X197980300Y-82575400D01*
X205600300Y-88112600D02*
X203517500Y-88112600D01*
X208140300Y-58851800D02*
X208140300Y-67589400D01*
G04 #@! TO.N,Net-(LS1-Pad2)*
X202666600Y-117675100D02*
X202666600Y-119138700D01*
X206333800Y-114007900D02*
X202666600Y-117675100D01*
X210146900Y-114007900D02*
X206333800Y-114007900D01*
G04 #@! TO.N,Net-(SW1-Pad1)*
X199656700Y-118538700D02*
X199656700Y-119138700D01*
X198999400Y-117881400D02*
X199656700Y-118538700D01*
X197446900Y-117881400D02*
X198999400Y-117881400D01*
G04 #@! TO.N,Net-(SW2-Pad2)*
X188823600Y-100676200D02*
X194322700Y-95177100D01*
X188823600Y-101676200D02*
X188823600Y-100676200D01*
X194322700Y-95177100D02*
X194322700Y-90703400D01*
X197624700Y-87401400D02*
X200240900Y-87401400D01*
X194322700Y-90703400D02*
X197624700Y-87401400D01*
G04 #@! TO.N,Net-(SW3-Pad2)*
X196621400Y-92954600D02*
X198618600Y-90957400D01*
X196621400Y-93954600D02*
X196621400Y-92954600D01*
X198618600Y-90957400D02*
X209130900Y-90957400D01*
X209130900Y-90957400D02*
X210324700Y-89763600D01*
X210324700Y-86995000D02*
X207937100Y-84607400D01*
X210324700Y-89763600D02*
X210324700Y-86995000D01*
G04 #@! TO.N,Net-(SW4-Pad2)*
X196596000Y-109575600D02*
X191020700Y-109575600D01*
X191020700Y-109575600D02*
X189750700Y-108305600D01*
X189750700Y-108305600D02*
X189750700Y-103632000D01*
X189750700Y-103632000D02*
X194983100Y-98399600D01*
X194983100Y-98399600D02*
X194983100Y-92329000D01*
X198031100Y-89281000D02*
X198412100Y-89281000D01*
X194983100Y-92329000D02*
X198031100Y-89281000D01*
G04 #@! TO.N,Net-(SW5-Pad2)*
X204368400Y-96431100D02*
X211162900Y-89636600D01*
X204368400Y-101625400D02*
X204368400Y-96431100D01*
G04 #@! TO.N,Net-(SW6-Pad2)*
X223494600Y-63461100D02*
X221933300Y-61899800D01*
X223494600Y-101676200D02*
X223494600Y-63461100D01*
X216268300Y-61899800D02*
X215887300Y-62280800D01*
X221933300Y-61899800D02*
X216268300Y-61899800D01*
G04 #@! TO.N,Net-(SW7-Pad2)*
X231017000Y-93903800D02*
X225412300Y-88299100D01*
X231267000Y-93903800D02*
X231017000Y-93903800D01*
X225412300Y-69392800D02*
X225234500Y-69215000D01*
X225412300Y-88299100D02*
X225412300Y-69392800D01*
G04 #@! TO.N,Net-(SW8-Pad1)*
X196024500Y-82778600D02*
X195389500Y-82143600D01*
X196024500Y-85090000D02*
X196024500Y-82778600D01*
G04 #@! TO.N,Net-(U3-Pad7)*
X217500301Y-58051801D02*
X217500301Y-57340601D01*
X218300300Y-58851800D02*
X217500301Y-58051801D01*
X217500301Y-57340601D02*
X216852500Y-56692800D01*
X216852500Y-56692800D02*
X204279500Y-56692800D01*
X204279500Y-56692800D02*
X202857100Y-58115200D01*
X202857100Y-59893200D02*
X205244700Y-62280800D01*
X202857100Y-58115200D02*
X202857100Y-59893200D01*
G04 #@! TO.N,Net-(U1-Pad4)*
X210680300Y-77851000D02*
X210553300Y-77978000D01*
X210680300Y-58851800D02*
X210680300Y-77851000D01*
X210731100Y-83083400D02*
X210731100Y-82600800D01*
X215760300Y-88112600D02*
X210731100Y-83083400D01*
G04 #@! TD*
M02*
