G04 #@! TF.GenerationSoftware,KiCad,Pcbnew,5.0.2+dfsg1-1~bpo9+1*
G04 #@! TF.CreationDate,2019-06-22T18:26:23+01:00*
G04 #@! TF.ProjectId,arduboy_with_flashcart_port_smd,61726475-626f-4795-9f77-6974685f666c,rev?*
G04 #@! TF.SameCoordinates,Original*
G04 #@! TF.FileFunction,Legend,Bot*
G04 #@! TF.FilePolarity,Positive*
%FSLAX46Y46*%
G04 Gerber Fmt 4.6, Leading zero omitted, Abs format (unit mm)*
G04 Created by KiCad (PCBNEW 5.0.2+dfsg1-1~bpo9+1) date Sat 22 Jun 2019 18:26:23 BST*
%MOMM*%
%LPD*%
G01*
G04 APERTURE LIST*
%ADD10C,0.300000*%
%ADD11C,0.150000*%
G04 APERTURE END LIST*
D10*
X233396600Y-70276757D02*
X233396600Y-70991042D01*
X233825171Y-70133900D02*
X232325171Y-70633900D01*
X233825171Y-71133900D01*
X233825171Y-71633900D02*
X232825171Y-71633900D01*
X233110885Y-71633900D02*
X232968028Y-71705328D01*
X232896600Y-71776757D01*
X232825171Y-71919614D01*
X232825171Y-72062471D01*
X233825171Y-73205328D02*
X232325171Y-73205328D01*
X233753742Y-73205328D02*
X233825171Y-73062471D01*
X233825171Y-72776757D01*
X233753742Y-72633900D01*
X233682314Y-72562471D01*
X233539457Y-72491042D01*
X233110885Y-72491042D01*
X232968028Y-72562471D01*
X232896600Y-72633900D01*
X232825171Y-72776757D01*
X232825171Y-73062471D01*
X232896600Y-73205328D01*
X232825171Y-74562471D02*
X233825171Y-74562471D01*
X232825171Y-73919614D02*
X233610885Y-73919614D01*
X233753742Y-73991042D01*
X233825171Y-74133900D01*
X233825171Y-74348185D01*
X233753742Y-74491042D01*
X233682314Y-74562471D01*
X233825171Y-75276757D02*
X232325171Y-75276757D01*
X232896600Y-75276757D02*
X232825171Y-75419614D01*
X232825171Y-75705328D01*
X232896600Y-75848185D01*
X232968028Y-75919614D01*
X233110885Y-75991042D01*
X233539457Y-75991042D01*
X233682314Y-75919614D01*
X233753742Y-75848185D01*
X233825171Y-75705328D01*
X233825171Y-75419614D01*
X233753742Y-75276757D01*
X233825171Y-76848185D02*
X233753742Y-76705328D01*
X233682314Y-76633900D01*
X233539457Y-76562471D01*
X233110885Y-76562471D01*
X232968028Y-76633900D01*
X232896600Y-76705328D01*
X232825171Y-76848185D01*
X232825171Y-77062471D01*
X232896600Y-77205328D01*
X232968028Y-77276757D01*
X233110885Y-77348185D01*
X233539457Y-77348185D01*
X233682314Y-77276757D01*
X233753742Y-77205328D01*
X233825171Y-77062471D01*
X233825171Y-76848185D01*
X232825171Y-77848185D02*
X233825171Y-78205328D01*
X232825171Y-78562471D02*
X233825171Y-78205328D01*
X234182314Y-78062471D01*
X234253742Y-77991042D01*
X234325171Y-77848185D01*
X236722457Y-64435471D02*
X236722457Y-63935471D01*
X237508171Y-63935471D02*
X236008171Y-63935471D01*
X236008171Y-64649757D01*
X237508171Y-65864042D02*
X236722457Y-65864042D01*
X236579600Y-65792614D01*
X236508171Y-65649757D01*
X236508171Y-65364042D01*
X236579600Y-65221185D01*
X237436742Y-65864042D02*
X237508171Y-65721185D01*
X237508171Y-65364042D01*
X237436742Y-65221185D01*
X237293885Y-65149757D01*
X237151028Y-65149757D01*
X237008171Y-65221185D01*
X236936742Y-65364042D01*
X236936742Y-65721185D01*
X236865314Y-65864042D01*
X237436742Y-67221185D02*
X237508171Y-67078328D01*
X237508171Y-66792614D01*
X237436742Y-66649757D01*
X237365314Y-66578328D01*
X237222457Y-66506900D01*
X236793885Y-66506900D01*
X236651028Y-66578328D01*
X236579600Y-66649757D01*
X236508171Y-66792614D01*
X236508171Y-67078328D01*
X236579600Y-67221185D01*
X237436742Y-68435471D02*
X237508171Y-68292614D01*
X237508171Y-68006900D01*
X237436742Y-67864042D01*
X237293885Y-67792614D01*
X236722457Y-67792614D01*
X236579600Y-67864042D01*
X236508171Y-68006900D01*
X236508171Y-68292614D01*
X236579600Y-68435471D01*
X236722457Y-68506900D01*
X236865314Y-68506900D01*
X237008171Y-67792614D01*
X237508171Y-69364042D02*
X237436742Y-69221185D01*
X237293885Y-69149757D01*
X236008171Y-69149757D01*
X237436742Y-70506900D02*
X237508171Y-70364042D01*
X237508171Y-70078328D01*
X237436742Y-69935471D01*
X237293885Y-69864042D01*
X236722457Y-69864042D01*
X236579600Y-69935471D01*
X236508171Y-70078328D01*
X236508171Y-70364042D01*
X236579600Y-70506900D01*
X236722457Y-70578328D01*
X236865314Y-70578328D01*
X237008171Y-69864042D01*
X237436742Y-71149757D02*
X237508171Y-71292614D01*
X237508171Y-71578328D01*
X237436742Y-71721185D01*
X237293885Y-71792614D01*
X237222457Y-71792614D01*
X237079600Y-71721185D01*
X237008171Y-71578328D01*
X237008171Y-71364042D01*
X236936742Y-71221185D01*
X236793885Y-71149757D01*
X236722457Y-71149757D01*
X236579600Y-71221185D01*
X236508171Y-71364042D01*
X236508171Y-71578328D01*
X236579600Y-71721185D01*
X237436742Y-72364042D02*
X237508171Y-72506900D01*
X237508171Y-72792614D01*
X237436742Y-72935471D01*
X237293885Y-73006900D01*
X237222457Y-73006900D01*
X237079600Y-72935471D01*
X237008171Y-72792614D01*
X237008171Y-72578328D01*
X236936742Y-72435471D01*
X236793885Y-72364042D01*
X236722457Y-72364042D01*
X236579600Y-72435471D01*
X236508171Y-72578328D01*
X236508171Y-72792614D01*
X236579600Y-72935471D01*
X236508171Y-73435471D02*
X236508171Y-74006900D01*
X236008171Y-73649757D02*
X237293885Y-73649757D01*
X237436742Y-73721185D01*
X237508171Y-73864042D01*
X237508171Y-74006900D01*
X237436742Y-75078328D02*
X237508171Y-74935471D01*
X237508171Y-74649757D01*
X237436742Y-74506900D01*
X237293885Y-74435471D01*
X236722457Y-74435471D01*
X236579600Y-74506900D01*
X236508171Y-74649757D01*
X236508171Y-74935471D01*
X236579600Y-75078328D01*
X236722457Y-75149757D01*
X236865314Y-75149757D01*
X237008171Y-74435471D01*
X237436742Y-76435471D02*
X237508171Y-76292614D01*
X237508171Y-76006900D01*
X237436742Y-75864042D01*
X237365314Y-75792614D01*
X237222457Y-75721185D01*
X236793885Y-75721185D01*
X236651028Y-75792614D01*
X236579600Y-75864042D01*
X236508171Y-76006900D01*
X236508171Y-76292614D01*
X236579600Y-76435471D01*
X237508171Y-77078328D02*
X236008171Y-77078328D01*
X237508171Y-77721185D02*
X236722457Y-77721185D01*
X236579600Y-77649757D01*
X236508171Y-77506900D01*
X236508171Y-77292614D01*
X236579600Y-77149757D01*
X236651028Y-77078328D01*
X236151028Y-79506900D02*
X236079600Y-79578328D01*
X236008171Y-79721185D01*
X236008171Y-80078328D01*
X236079600Y-80221185D01*
X236151028Y-80292614D01*
X236293885Y-80364042D01*
X236436742Y-80364042D01*
X236651028Y-80292614D01*
X237508171Y-79435471D01*
X237508171Y-80364042D01*
X236008171Y-81292614D02*
X236008171Y-81435471D01*
X236079600Y-81578328D01*
X236151028Y-81649757D01*
X236293885Y-81721185D01*
X236579600Y-81792614D01*
X236936742Y-81792614D01*
X237222457Y-81721185D01*
X237365314Y-81649757D01*
X237436742Y-81578328D01*
X237508171Y-81435471D01*
X237508171Y-81292614D01*
X237436742Y-81149757D01*
X237365314Y-81078328D01*
X237222457Y-81006900D01*
X236936742Y-80935471D01*
X236579600Y-80935471D01*
X236293885Y-81006900D01*
X236151028Y-81078328D01*
X236079600Y-81149757D01*
X236008171Y-81292614D01*
X237508171Y-83221185D02*
X237508171Y-82364042D01*
X237508171Y-82792614D02*
X236008171Y-82792614D01*
X236222457Y-82649757D01*
X236365314Y-82506900D01*
X236436742Y-82364042D01*
X237508171Y-83935471D02*
X237508171Y-84221185D01*
X237436742Y-84364042D01*
X237365314Y-84435471D01*
X237151028Y-84578328D01*
X236865314Y-84649757D01*
X236293885Y-84649757D01*
X236151028Y-84578328D01*
X236079600Y-84506900D01*
X236008171Y-84364042D01*
X236008171Y-84078328D01*
X236079600Y-83935471D01*
X236151028Y-83864042D01*
X236293885Y-83792614D01*
X236651028Y-83792614D01*
X236793885Y-83864042D01*
X236865314Y-83935471D01*
X236936742Y-84078328D01*
X236936742Y-84364042D01*
X236865314Y-84506900D01*
X236793885Y-84578328D01*
X236651028Y-84649757D01*
D11*
G04 #@! TO.C,U1*
X203771500Y-88976200D02*
X203771500Y-99974400D01*
X222669100Y-88976200D02*
X222669100Y-99974400D01*
X203771500Y-88976200D02*
X222669100Y-88976200D01*
X203771500Y-99974400D02*
X222669100Y-99974400D01*
X203784200Y-99974400D02*
X194729100Y-99974400D01*
X194729100Y-99974400D02*
X194729100Y-122936000D01*
X222669100Y-99974400D02*
X231787700Y-99974400D01*
X231787700Y-99974400D02*
X231787700Y-122936000D01*
X231787700Y-122936000D02*
X194729100Y-122936000D01*
X215188704Y-91489280D02*
X215188704Y-92298804D01*
X215141085Y-92394042D01*
X215093466Y-92441661D01*
X214998228Y-92489280D01*
X214807752Y-92489280D01*
X214712514Y-92441661D01*
X214664895Y-92394042D01*
X214617276Y-92298804D01*
X214617276Y-91489280D01*
X213617276Y-92489280D02*
X214188704Y-92489280D01*
X213902990Y-92489280D02*
X213902990Y-91489280D01*
X213998228Y-91632138D01*
X214093466Y-91727376D01*
X214188704Y-91774995D01*
G04 #@! TD*
M02*
