M48
METRIC,TZ
T1C0.400
T2C1.000
T3C3.000
%
G90
G05
T1
X190132Y-85217
X195390Y-82144
X196761Y-101727
X197447Y-117881
X197904Y-77826
X197980Y-82575
X198412Y-89281
X200216Y-94386
X200241Y-87401
X202044Y-76530
X204661Y-109855
X205245Y-62281
X207937Y-84607
X210553Y-77978
X210731Y-82601
X211163Y-89637
X212484Y-102108
X214363Y-81534
X215405Y-77673
X215659Y-82347
X215887Y-62281
X225234Y-69215
X227876Y-116764
X231991Y-102489
X235547Y-95555
T2
X205600Y-58852
X208140Y-58852
X210680Y-58852
X213220Y-58852
X215760Y-58852
X218300Y-58852
X220840Y-58852
X229146Y-57988
X231686Y-57988
X205600Y-88113
X208140Y-88113
X213220Y-88113
X215760Y-88113
X218300Y-88113
X220840Y-88113
T3
X189395Y-58547
X237071Y-120015
X237071Y-58522
X189395Y-120015
T0
M30
