G04 #@! TF.GenerationSoftware,KiCad,Pcbnew,5.0.2+dfsg1-1~bpo9+1*
G04 #@! TF.CreationDate,2019-06-22T18:26:23+01:00*
G04 #@! TF.ProjectId,arduboy_with_flashcart_port_smd,61726475-626f-4795-9f77-6974685f666c,rev?*
G04 #@! TF.SameCoordinates,Original*
G04 #@! TF.FileFunction,Soldermask,Bot*
G04 #@! TF.FilePolarity,Negative*
%FSLAX46Y46*%
G04 Gerber Fmt 4.6, Leading zero omitted, Abs format (unit mm)*
G04 Created by KiCad (PCBNEW 5.0.2+dfsg1-1~bpo9+1) date Sat 22 Jun 2019 18:26:23 BST*
%MOMM*%
%LPD*%
G01*
G04 APERTURE LIST*
%ADD10C,0.100000*%
G04 APERTURE END LIST*
D10*
G36*
X237596231Y-118283211D02*
X237923992Y-118418974D01*
X238218973Y-118616074D01*
X238469826Y-118866927D01*
X238666926Y-119161908D01*
X238802689Y-119489669D01*
X238871900Y-119837616D01*
X238871900Y-120192384D01*
X238802689Y-120540331D01*
X238666926Y-120868092D01*
X238469826Y-121163073D01*
X238218973Y-121413926D01*
X237923992Y-121611026D01*
X237596231Y-121746789D01*
X237248284Y-121816000D01*
X236893516Y-121816000D01*
X236545569Y-121746789D01*
X236217808Y-121611026D01*
X235922827Y-121413926D01*
X235671974Y-121163073D01*
X235474874Y-120868092D01*
X235339111Y-120540331D01*
X235269900Y-120192384D01*
X235269900Y-119837616D01*
X235339111Y-119489669D01*
X235474874Y-119161908D01*
X235671974Y-118866927D01*
X235922827Y-118616074D01*
X236217808Y-118418974D01*
X236545569Y-118283211D01*
X236893516Y-118214000D01*
X237248284Y-118214000D01*
X237596231Y-118283211D01*
X237596231Y-118283211D01*
G37*
G36*
X189920431Y-118283211D02*
X190248192Y-118418974D01*
X190543173Y-118616074D01*
X190794026Y-118866927D01*
X190991126Y-119161908D01*
X191126889Y-119489669D01*
X191196100Y-119837616D01*
X191196100Y-120192384D01*
X191126889Y-120540331D01*
X190991126Y-120868092D01*
X190794026Y-121163073D01*
X190543173Y-121413926D01*
X190248192Y-121611026D01*
X189920431Y-121746789D01*
X189572484Y-121816000D01*
X189217716Y-121816000D01*
X188869769Y-121746789D01*
X188542008Y-121611026D01*
X188247027Y-121413926D01*
X187996174Y-121163073D01*
X187799074Y-120868092D01*
X187663311Y-120540331D01*
X187594100Y-120192384D01*
X187594100Y-119837616D01*
X187663311Y-119489669D01*
X187799074Y-119161908D01*
X187996174Y-118866927D01*
X188247027Y-118616074D01*
X188542008Y-118418974D01*
X188869769Y-118283211D01*
X189217716Y-118214000D01*
X189572484Y-118214000D01*
X189920431Y-118283211D01*
X189920431Y-118283211D01*
G37*
G36*
X213468528Y-87294303D02*
X213623400Y-87358453D01*
X213762781Y-87451585D01*
X213881315Y-87570119D01*
X213974447Y-87709500D01*
X214038597Y-87864372D01*
X214071300Y-88028784D01*
X214071300Y-88196416D01*
X214038597Y-88360828D01*
X213974447Y-88515700D01*
X213881315Y-88655081D01*
X213762781Y-88773615D01*
X213623400Y-88866747D01*
X213468528Y-88930897D01*
X213304116Y-88963600D01*
X213136484Y-88963600D01*
X212972072Y-88930897D01*
X212817200Y-88866747D01*
X212677819Y-88773615D01*
X212559285Y-88655081D01*
X212466153Y-88515700D01*
X212402003Y-88360828D01*
X212369300Y-88196416D01*
X212369300Y-88028784D01*
X212402003Y-87864372D01*
X212466153Y-87709500D01*
X212559285Y-87570119D01*
X212677819Y-87451585D01*
X212817200Y-87358453D01*
X212972072Y-87294303D01*
X213136484Y-87261600D01*
X213304116Y-87261600D01*
X213468528Y-87294303D01*
X213468528Y-87294303D01*
G37*
G36*
X208388528Y-87294303D02*
X208543400Y-87358453D01*
X208682781Y-87451585D01*
X208801315Y-87570119D01*
X208894447Y-87709500D01*
X208958597Y-87864372D01*
X208991300Y-88028784D01*
X208991300Y-88196416D01*
X208958597Y-88360828D01*
X208894447Y-88515700D01*
X208801315Y-88655081D01*
X208682781Y-88773615D01*
X208543400Y-88866747D01*
X208388528Y-88930897D01*
X208224116Y-88963600D01*
X208056484Y-88963600D01*
X207892072Y-88930897D01*
X207737200Y-88866747D01*
X207597819Y-88773615D01*
X207479285Y-88655081D01*
X207386153Y-88515700D01*
X207322003Y-88360828D01*
X207289300Y-88196416D01*
X207289300Y-88028784D01*
X207322003Y-87864372D01*
X207386153Y-87709500D01*
X207479285Y-87570119D01*
X207597819Y-87451585D01*
X207737200Y-87358453D01*
X207892072Y-87294303D01*
X208056484Y-87261600D01*
X208224116Y-87261600D01*
X208388528Y-87294303D01*
X208388528Y-87294303D01*
G37*
G36*
X205848528Y-87294303D02*
X206003400Y-87358453D01*
X206142781Y-87451585D01*
X206261315Y-87570119D01*
X206354447Y-87709500D01*
X206418597Y-87864372D01*
X206451300Y-88028784D01*
X206451300Y-88196416D01*
X206418597Y-88360828D01*
X206354447Y-88515700D01*
X206261315Y-88655081D01*
X206142781Y-88773615D01*
X206003400Y-88866747D01*
X205848528Y-88930897D01*
X205684116Y-88963600D01*
X205516484Y-88963600D01*
X205352072Y-88930897D01*
X205197200Y-88866747D01*
X205057819Y-88773615D01*
X204939285Y-88655081D01*
X204846153Y-88515700D01*
X204782003Y-88360828D01*
X204749300Y-88196416D01*
X204749300Y-88028784D01*
X204782003Y-87864372D01*
X204846153Y-87709500D01*
X204939285Y-87570119D01*
X205057819Y-87451585D01*
X205197200Y-87358453D01*
X205352072Y-87294303D01*
X205516484Y-87261600D01*
X205684116Y-87261600D01*
X205848528Y-87294303D01*
X205848528Y-87294303D01*
G37*
G36*
X221088528Y-87294303D02*
X221243400Y-87358453D01*
X221382781Y-87451585D01*
X221501315Y-87570119D01*
X221594447Y-87709500D01*
X221658597Y-87864372D01*
X221691300Y-88028784D01*
X221691300Y-88196416D01*
X221658597Y-88360828D01*
X221594447Y-88515700D01*
X221501315Y-88655081D01*
X221382781Y-88773615D01*
X221243400Y-88866747D01*
X221088528Y-88930897D01*
X220924116Y-88963600D01*
X220756484Y-88963600D01*
X220592072Y-88930897D01*
X220437200Y-88866747D01*
X220297819Y-88773615D01*
X220179285Y-88655081D01*
X220086153Y-88515700D01*
X220022003Y-88360828D01*
X219989300Y-88196416D01*
X219989300Y-88028784D01*
X220022003Y-87864372D01*
X220086153Y-87709500D01*
X220179285Y-87570119D01*
X220297819Y-87451585D01*
X220437200Y-87358453D01*
X220592072Y-87294303D01*
X220756484Y-87261600D01*
X220924116Y-87261600D01*
X221088528Y-87294303D01*
X221088528Y-87294303D01*
G37*
G36*
X218548528Y-87294303D02*
X218703400Y-87358453D01*
X218842781Y-87451585D01*
X218961315Y-87570119D01*
X219054447Y-87709500D01*
X219118597Y-87864372D01*
X219151300Y-88028784D01*
X219151300Y-88196416D01*
X219118597Y-88360828D01*
X219054447Y-88515700D01*
X218961315Y-88655081D01*
X218842781Y-88773615D01*
X218703400Y-88866747D01*
X218548528Y-88930897D01*
X218384116Y-88963600D01*
X218216484Y-88963600D01*
X218052072Y-88930897D01*
X217897200Y-88866747D01*
X217757819Y-88773615D01*
X217639285Y-88655081D01*
X217546153Y-88515700D01*
X217482003Y-88360828D01*
X217449300Y-88196416D01*
X217449300Y-88028784D01*
X217482003Y-87864372D01*
X217546153Y-87709500D01*
X217639285Y-87570119D01*
X217757819Y-87451585D01*
X217897200Y-87358453D01*
X218052072Y-87294303D01*
X218216484Y-87261600D01*
X218384116Y-87261600D01*
X218548528Y-87294303D01*
X218548528Y-87294303D01*
G37*
G36*
X216008528Y-87294303D02*
X216163400Y-87358453D01*
X216302781Y-87451585D01*
X216421315Y-87570119D01*
X216514447Y-87709500D01*
X216578597Y-87864372D01*
X216611300Y-88028784D01*
X216611300Y-88196416D01*
X216578597Y-88360828D01*
X216514447Y-88515700D01*
X216421315Y-88655081D01*
X216302781Y-88773615D01*
X216163400Y-88866747D01*
X216008528Y-88930897D01*
X215844116Y-88963600D01*
X215676484Y-88963600D01*
X215512072Y-88930897D01*
X215357200Y-88866747D01*
X215217819Y-88773615D01*
X215099285Y-88655081D01*
X215006153Y-88515700D01*
X214942003Y-88360828D01*
X214909300Y-88196416D01*
X214909300Y-88028784D01*
X214942003Y-87864372D01*
X215006153Y-87709500D01*
X215099285Y-87570119D01*
X215217819Y-87451585D01*
X215357200Y-87358453D01*
X215512072Y-87294303D01*
X215676484Y-87261600D01*
X215844116Y-87261600D01*
X216008528Y-87294303D01*
X216008528Y-87294303D01*
G37*
G36*
X208521198Y-79166568D02*
X208589184Y-79187191D01*
X208651837Y-79220680D01*
X208706752Y-79265748D01*
X208751820Y-79320663D01*
X208785309Y-79383316D01*
X208805932Y-79451302D01*
X208813500Y-79528140D01*
X208813500Y-80491860D01*
X208805932Y-80568698D01*
X208785309Y-80636684D01*
X208751820Y-80699337D01*
X208706752Y-80754252D01*
X208651837Y-80799320D01*
X208589184Y-80832809D01*
X208521198Y-80853432D01*
X208444360Y-80861000D01*
X207480640Y-80861000D01*
X207403802Y-80853432D01*
X207335816Y-80832809D01*
X207273163Y-80799320D01*
X207218248Y-80754252D01*
X207173180Y-80699337D01*
X207139691Y-80636684D01*
X207119068Y-80568698D01*
X207111500Y-80491860D01*
X207111500Y-79528140D01*
X207119068Y-79451302D01*
X207139691Y-79383316D01*
X207173180Y-79320663D01*
X207218248Y-79265748D01*
X207273163Y-79220680D01*
X207335816Y-79187191D01*
X207403802Y-79166568D01*
X207480640Y-79159000D01*
X208444360Y-79159000D01*
X208521198Y-79166568D01*
X208521198Y-79166568D01*
G37*
G36*
X193281198Y-79166568D02*
X193349184Y-79187191D01*
X193411837Y-79220680D01*
X193466752Y-79265748D01*
X193511820Y-79320663D01*
X193545309Y-79383316D01*
X193565932Y-79451302D01*
X193573500Y-79528140D01*
X193573500Y-80491860D01*
X193565932Y-80568698D01*
X193545309Y-80636684D01*
X193511820Y-80699337D01*
X193466752Y-80754252D01*
X193411837Y-80799320D01*
X193349184Y-80832809D01*
X193281198Y-80853432D01*
X193204360Y-80861000D01*
X192240640Y-80861000D01*
X192163802Y-80853432D01*
X192095816Y-80832809D01*
X192033163Y-80799320D01*
X191978248Y-80754252D01*
X191933180Y-80699337D01*
X191899691Y-80636684D01*
X191879068Y-80568698D01*
X191871500Y-80491860D01*
X191871500Y-79528140D01*
X191879068Y-79451302D01*
X191899691Y-79383316D01*
X191933180Y-79320663D01*
X191978248Y-79265748D01*
X192033163Y-79220680D01*
X192095816Y-79187191D01*
X192163802Y-79166568D01*
X192240640Y-79159000D01*
X193204360Y-79159000D01*
X193281198Y-79166568D01*
X193281198Y-79166568D01*
G37*
G36*
X195821198Y-79166568D02*
X195889184Y-79187191D01*
X195951837Y-79220680D01*
X196006752Y-79265748D01*
X196051820Y-79320663D01*
X196085309Y-79383316D01*
X196105932Y-79451302D01*
X196113500Y-79528140D01*
X196113500Y-80491860D01*
X196105932Y-80568698D01*
X196085309Y-80636684D01*
X196051820Y-80699337D01*
X196006752Y-80754252D01*
X195951837Y-80799320D01*
X195889184Y-80832809D01*
X195821198Y-80853432D01*
X195744360Y-80861000D01*
X194780640Y-80861000D01*
X194703802Y-80853432D01*
X194635816Y-80832809D01*
X194573163Y-80799320D01*
X194518248Y-80754252D01*
X194473180Y-80699337D01*
X194439691Y-80636684D01*
X194419068Y-80568698D01*
X194411500Y-80491860D01*
X194411500Y-79528140D01*
X194419068Y-79451302D01*
X194439691Y-79383316D01*
X194473180Y-79320663D01*
X194518248Y-79265748D01*
X194573163Y-79220680D01*
X194635816Y-79187191D01*
X194703802Y-79166568D01*
X194780640Y-79159000D01*
X195744360Y-79159000D01*
X195821198Y-79166568D01*
X195821198Y-79166568D01*
G37*
G36*
X198361198Y-79166568D02*
X198429184Y-79187191D01*
X198491837Y-79220680D01*
X198546752Y-79265748D01*
X198591820Y-79320663D01*
X198625309Y-79383316D01*
X198645932Y-79451302D01*
X198653500Y-79528140D01*
X198653500Y-80491860D01*
X198645932Y-80568698D01*
X198625309Y-80636684D01*
X198591820Y-80699337D01*
X198546752Y-80754252D01*
X198491837Y-80799320D01*
X198429184Y-80832809D01*
X198361198Y-80853432D01*
X198284360Y-80861000D01*
X197320640Y-80861000D01*
X197243802Y-80853432D01*
X197175816Y-80832809D01*
X197113163Y-80799320D01*
X197058248Y-80754252D01*
X197013180Y-80699337D01*
X196979691Y-80636684D01*
X196959068Y-80568698D01*
X196951500Y-80491860D01*
X196951500Y-79528140D01*
X196959068Y-79451302D01*
X196979691Y-79383316D01*
X197013180Y-79320663D01*
X197058248Y-79265748D01*
X197113163Y-79220680D01*
X197175816Y-79187191D01*
X197243802Y-79166568D01*
X197320640Y-79159000D01*
X198284360Y-79159000D01*
X198361198Y-79166568D01*
X198361198Y-79166568D01*
G37*
G36*
X200901198Y-79166568D02*
X200969184Y-79187191D01*
X201031837Y-79220680D01*
X201086752Y-79265748D01*
X201131820Y-79320663D01*
X201165309Y-79383316D01*
X201185932Y-79451302D01*
X201193500Y-79528140D01*
X201193500Y-80491860D01*
X201185932Y-80568698D01*
X201165309Y-80636684D01*
X201131820Y-80699337D01*
X201086752Y-80754252D01*
X201031837Y-80799320D01*
X200969184Y-80832809D01*
X200901198Y-80853432D01*
X200824360Y-80861000D01*
X199860640Y-80861000D01*
X199783802Y-80853432D01*
X199715816Y-80832809D01*
X199653163Y-80799320D01*
X199598248Y-80754252D01*
X199553180Y-80699337D01*
X199519691Y-80636684D01*
X199499068Y-80568698D01*
X199491500Y-80491860D01*
X199491500Y-79528140D01*
X199499068Y-79451302D01*
X199519691Y-79383316D01*
X199553180Y-79320663D01*
X199598248Y-79265748D01*
X199653163Y-79220680D01*
X199715816Y-79187191D01*
X199783802Y-79166568D01*
X199860640Y-79159000D01*
X200824360Y-79159000D01*
X200901198Y-79166568D01*
X200901198Y-79166568D01*
G37*
G36*
X203441198Y-79166568D02*
X203509184Y-79187191D01*
X203571837Y-79220680D01*
X203626752Y-79265748D01*
X203671820Y-79320663D01*
X203705309Y-79383316D01*
X203725932Y-79451302D01*
X203733500Y-79528140D01*
X203733500Y-80491860D01*
X203725932Y-80568698D01*
X203705309Y-80636684D01*
X203671820Y-80699337D01*
X203626752Y-80754252D01*
X203571837Y-80799320D01*
X203509184Y-80832809D01*
X203441198Y-80853432D01*
X203364360Y-80861000D01*
X202400640Y-80861000D01*
X202323802Y-80853432D01*
X202255816Y-80832809D01*
X202193163Y-80799320D01*
X202138248Y-80754252D01*
X202093180Y-80699337D01*
X202059691Y-80636684D01*
X202039068Y-80568698D01*
X202031500Y-80491860D01*
X202031500Y-79528140D01*
X202039068Y-79451302D01*
X202059691Y-79383316D01*
X202093180Y-79320663D01*
X202138248Y-79265748D01*
X202193163Y-79220680D01*
X202255816Y-79187191D01*
X202323802Y-79166568D01*
X202400640Y-79159000D01*
X203364360Y-79159000D01*
X203441198Y-79166568D01*
X203441198Y-79166568D01*
G37*
G36*
X205981198Y-79166568D02*
X206049184Y-79187191D01*
X206111837Y-79220680D01*
X206166752Y-79265748D01*
X206211820Y-79320663D01*
X206245309Y-79383316D01*
X206265932Y-79451302D01*
X206273500Y-79528140D01*
X206273500Y-80491860D01*
X206265932Y-80568698D01*
X206245309Y-80636684D01*
X206211820Y-80699337D01*
X206166752Y-80754252D01*
X206111837Y-80799320D01*
X206049184Y-80832809D01*
X205981198Y-80853432D01*
X205904360Y-80861000D01*
X204940640Y-80861000D01*
X204863802Y-80853432D01*
X204795816Y-80832809D01*
X204733163Y-80799320D01*
X204678248Y-80754252D01*
X204633180Y-80699337D01*
X204599691Y-80636684D01*
X204579068Y-80568698D01*
X204571500Y-80491860D01*
X204571500Y-79528140D01*
X204579068Y-79451302D01*
X204599691Y-79383316D01*
X204633180Y-79320663D01*
X204678248Y-79265748D01*
X204733163Y-79220680D01*
X204795816Y-79187191D01*
X204863802Y-79166568D01*
X204940640Y-79159000D01*
X205904360Y-79159000D01*
X205981198Y-79166568D01*
X205981198Y-79166568D01*
G37*
G36*
X211061198Y-79166568D02*
X211129184Y-79187191D01*
X211191837Y-79220680D01*
X211246752Y-79265748D01*
X211291820Y-79320663D01*
X211325309Y-79383316D01*
X211345932Y-79451302D01*
X211353500Y-79528140D01*
X211353500Y-80491860D01*
X211345932Y-80568698D01*
X211325309Y-80636684D01*
X211291820Y-80699337D01*
X211246752Y-80754252D01*
X211191837Y-80799320D01*
X211129184Y-80832809D01*
X211061198Y-80853432D01*
X210984360Y-80861000D01*
X210020640Y-80861000D01*
X209943802Y-80853432D01*
X209875816Y-80832809D01*
X209813163Y-80799320D01*
X209758248Y-80754252D01*
X209713180Y-80699337D01*
X209679691Y-80636684D01*
X209659068Y-80568698D01*
X209651500Y-80491860D01*
X209651500Y-79528140D01*
X209659068Y-79451302D01*
X209679691Y-79383316D01*
X209713180Y-79320663D01*
X209758248Y-79265748D01*
X209813163Y-79220680D01*
X209875816Y-79187191D01*
X209943802Y-79166568D01*
X210020640Y-79159000D01*
X210984360Y-79159000D01*
X211061198Y-79166568D01*
X211061198Y-79166568D01*
G37*
G36*
X190741198Y-79166568D02*
X190809184Y-79187191D01*
X190871837Y-79220680D01*
X190926752Y-79265748D01*
X190971820Y-79320663D01*
X191005309Y-79383316D01*
X191025932Y-79451302D01*
X191033500Y-79528140D01*
X191033500Y-80491860D01*
X191025932Y-80568698D01*
X191005309Y-80636684D01*
X190971820Y-80699337D01*
X190926752Y-80754252D01*
X190871837Y-80799320D01*
X190809184Y-80832809D01*
X190741198Y-80853432D01*
X190664360Y-80861000D01*
X189700640Y-80861000D01*
X189623802Y-80853432D01*
X189555816Y-80832809D01*
X189493163Y-80799320D01*
X189438248Y-80754252D01*
X189393180Y-80699337D01*
X189359691Y-80636684D01*
X189339068Y-80568698D01*
X189331500Y-80491860D01*
X189331500Y-79528140D01*
X189339068Y-79451302D01*
X189359691Y-79383316D01*
X189393180Y-79320663D01*
X189438248Y-79265748D01*
X189493163Y-79220680D01*
X189555816Y-79187191D01*
X189623802Y-79166568D01*
X189700640Y-79159000D01*
X190664360Y-79159000D01*
X190741198Y-79166568D01*
X190741198Y-79166568D01*
G37*
G36*
X218681198Y-79166568D02*
X218749184Y-79187191D01*
X218811837Y-79220680D01*
X218866752Y-79265748D01*
X218911820Y-79320663D01*
X218945309Y-79383316D01*
X218965932Y-79451302D01*
X218973500Y-79528140D01*
X218973500Y-80491860D01*
X218965932Y-80568698D01*
X218945309Y-80636684D01*
X218911820Y-80699337D01*
X218866752Y-80754252D01*
X218811837Y-80799320D01*
X218749184Y-80832809D01*
X218681198Y-80853432D01*
X218604360Y-80861000D01*
X217640640Y-80861000D01*
X217563802Y-80853432D01*
X217495816Y-80832809D01*
X217433163Y-80799320D01*
X217378248Y-80754252D01*
X217333180Y-80699337D01*
X217299691Y-80636684D01*
X217279068Y-80568698D01*
X217271500Y-80491860D01*
X217271500Y-79528140D01*
X217279068Y-79451302D01*
X217299691Y-79383316D01*
X217333180Y-79320663D01*
X217378248Y-79265748D01*
X217433163Y-79220680D01*
X217495816Y-79187191D01*
X217563802Y-79166568D01*
X217640640Y-79159000D01*
X218604360Y-79159000D01*
X218681198Y-79166568D01*
X218681198Y-79166568D01*
G37*
G36*
X216141198Y-79166568D02*
X216209184Y-79187191D01*
X216271837Y-79220680D01*
X216326752Y-79265748D01*
X216371820Y-79320663D01*
X216405309Y-79383316D01*
X216425932Y-79451302D01*
X216433500Y-79528140D01*
X216433500Y-80491860D01*
X216425932Y-80568698D01*
X216405309Y-80636684D01*
X216371820Y-80699337D01*
X216326752Y-80754252D01*
X216271837Y-80799320D01*
X216209184Y-80832809D01*
X216141198Y-80853432D01*
X216064360Y-80861000D01*
X215100640Y-80861000D01*
X215023802Y-80853432D01*
X214955816Y-80832809D01*
X214893163Y-80799320D01*
X214838248Y-80754252D01*
X214793180Y-80699337D01*
X214759691Y-80636684D01*
X214739068Y-80568698D01*
X214731500Y-80491860D01*
X214731500Y-79528140D01*
X214739068Y-79451302D01*
X214759691Y-79383316D01*
X214793180Y-79320663D01*
X214838248Y-79265748D01*
X214893163Y-79220680D01*
X214955816Y-79187191D01*
X215023802Y-79166568D01*
X215100640Y-79159000D01*
X216064360Y-79159000D01*
X216141198Y-79166568D01*
X216141198Y-79166568D01*
G37*
G36*
X213601198Y-79166568D02*
X213669184Y-79187191D01*
X213731837Y-79220680D01*
X213786752Y-79265748D01*
X213831820Y-79320663D01*
X213865309Y-79383316D01*
X213885932Y-79451302D01*
X213893500Y-79528140D01*
X213893500Y-80491860D01*
X213885932Y-80568698D01*
X213865309Y-80636684D01*
X213831820Y-80699337D01*
X213786752Y-80754252D01*
X213731837Y-80799320D01*
X213669184Y-80832809D01*
X213601198Y-80853432D01*
X213524360Y-80861000D01*
X212560640Y-80861000D01*
X212483802Y-80853432D01*
X212415816Y-80832809D01*
X212353163Y-80799320D01*
X212298248Y-80754252D01*
X212253180Y-80699337D01*
X212219691Y-80636684D01*
X212199068Y-80568698D01*
X212191500Y-80491860D01*
X212191500Y-79528140D01*
X212199068Y-79451302D01*
X212219691Y-79383316D01*
X212253180Y-79320663D01*
X212298248Y-79265748D01*
X212353163Y-79220680D01*
X212415816Y-79187191D01*
X212483802Y-79166568D01*
X212560640Y-79159000D01*
X213524360Y-79159000D01*
X213601198Y-79166568D01*
X213601198Y-79166568D01*
G37*
G36*
X211061198Y-63926568D02*
X211129184Y-63947191D01*
X211191837Y-63980680D01*
X211246752Y-64025748D01*
X211291820Y-64080663D01*
X211325309Y-64143316D01*
X211345932Y-64211302D01*
X211353500Y-64288140D01*
X211353500Y-65251860D01*
X211345932Y-65328698D01*
X211325309Y-65396684D01*
X211291820Y-65459337D01*
X211246752Y-65514252D01*
X211191837Y-65559320D01*
X211129184Y-65592809D01*
X211061198Y-65613432D01*
X210984360Y-65621000D01*
X210020640Y-65621000D01*
X209943802Y-65613432D01*
X209875816Y-65592809D01*
X209813163Y-65559320D01*
X209758248Y-65514252D01*
X209713180Y-65459337D01*
X209679691Y-65396684D01*
X209659068Y-65328698D01*
X209651500Y-65251860D01*
X209651500Y-64288140D01*
X209659068Y-64211302D01*
X209679691Y-64143316D01*
X209713180Y-64080663D01*
X209758248Y-64025748D01*
X209813163Y-63980680D01*
X209875816Y-63947191D01*
X209943802Y-63926568D01*
X210020640Y-63919000D01*
X210984360Y-63919000D01*
X211061198Y-63926568D01*
X211061198Y-63926568D01*
G37*
G36*
X218681198Y-63926568D02*
X218749184Y-63947191D01*
X218811837Y-63980680D01*
X218866752Y-64025748D01*
X218911820Y-64080663D01*
X218945309Y-64143316D01*
X218965932Y-64211302D01*
X218973500Y-64288140D01*
X218973500Y-65251860D01*
X218965932Y-65328698D01*
X218945309Y-65396684D01*
X218911820Y-65459337D01*
X218866752Y-65514252D01*
X218811837Y-65559320D01*
X218749184Y-65592809D01*
X218681198Y-65613432D01*
X218604360Y-65621000D01*
X217640640Y-65621000D01*
X217563802Y-65613432D01*
X217495816Y-65592809D01*
X217433163Y-65559320D01*
X217378248Y-65514252D01*
X217333180Y-65459337D01*
X217299691Y-65396684D01*
X217279068Y-65328698D01*
X217271500Y-65251860D01*
X217271500Y-64288140D01*
X217279068Y-64211302D01*
X217299691Y-64143316D01*
X217333180Y-64080663D01*
X217378248Y-64025748D01*
X217433163Y-63980680D01*
X217495816Y-63947191D01*
X217563802Y-63926568D01*
X217640640Y-63919000D01*
X218604360Y-63919000D01*
X218681198Y-63926568D01*
X218681198Y-63926568D01*
G37*
G36*
X216141198Y-63926568D02*
X216209184Y-63947191D01*
X216271837Y-63980680D01*
X216326752Y-64025748D01*
X216371820Y-64080663D01*
X216405309Y-64143316D01*
X216425932Y-64211302D01*
X216433500Y-64288140D01*
X216433500Y-65251860D01*
X216425932Y-65328698D01*
X216405309Y-65396684D01*
X216371820Y-65459337D01*
X216326752Y-65514252D01*
X216271837Y-65559320D01*
X216209184Y-65592809D01*
X216141198Y-65613432D01*
X216064360Y-65621000D01*
X215100640Y-65621000D01*
X215023802Y-65613432D01*
X214955816Y-65592809D01*
X214893163Y-65559320D01*
X214838248Y-65514252D01*
X214793180Y-65459337D01*
X214759691Y-65396684D01*
X214739068Y-65328698D01*
X214731500Y-65251860D01*
X214731500Y-64288140D01*
X214739068Y-64211302D01*
X214759691Y-64143316D01*
X214793180Y-64080663D01*
X214838248Y-64025748D01*
X214893163Y-63980680D01*
X214955816Y-63947191D01*
X215023802Y-63926568D01*
X215100640Y-63919000D01*
X216064360Y-63919000D01*
X216141198Y-63926568D01*
X216141198Y-63926568D01*
G37*
G36*
X213601198Y-63926568D02*
X213669184Y-63947191D01*
X213731837Y-63980680D01*
X213786752Y-64025748D01*
X213831820Y-64080663D01*
X213865309Y-64143316D01*
X213885932Y-64211302D01*
X213893500Y-64288140D01*
X213893500Y-65251860D01*
X213885932Y-65328698D01*
X213865309Y-65396684D01*
X213831820Y-65459337D01*
X213786752Y-65514252D01*
X213731837Y-65559320D01*
X213669184Y-65592809D01*
X213601198Y-65613432D01*
X213524360Y-65621000D01*
X212560640Y-65621000D01*
X212483802Y-65613432D01*
X212415816Y-65592809D01*
X212353163Y-65559320D01*
X212298248Y-65514252D01*
X212253180Y-65459337D01*
X212219691Y-65396684D01*
X212199068Y-65328698D01*
X212191500Y-65251860D01*
X212191500Y-64288140D01*
X212199068Y-64211302D01*
X212219691Y-64143316D01*
X212253180Y-64080663D01*
X212298248Y-64025748D01*
X212353163Y-63980680D01*
X212415816Y-63947191D01*
X212483802Y-63926568D01*
X212560640Y-63919000D01*
X213524360Y-63919000D01*
X213601198Y-63926568D01*
X213601198Y-63926568D01*
G37*
G36*
X208521198Y-63926568D02*
X208589184Y-63947191D01*
X208651837Y-63980680D01*
X208706752Y-64025748D01*
X208751820Y-64080663D01*
X208785309Y-64143316D01*
X208805932Y-64211302D01*
X208813500Y-64288140D01*
X208813500Y-65251860D01*
X208805932Y-65328698D01*
X208785309Y-65396684D01*
X208751820Y-65459337D01*
X208706752Y-65514252D01*
X208651837Y-65559320D01*
X208589184Y-65592809D01*
X208521198Y-65613432D01*
X208444360Y-65621000D01*
X207480640Y-65621000D01*
X207403802Y-65613432D01*
X207335816Y-65592809D01*
X207273163Y-65559320D01*
X207218248Y-65514252D01*
X207173180Y-65459337D01*
X207139691Y-65396684D01*
X207119068Y-65328698D01*
X207111500Y-65251860D01*
X207111500Y-64288140D01*
X207119068Y-64211302D01*
X207139691Y-64143316D01*
X207173180Y-64080663D01*
X207218248Y-64025748D01*
X207273163Y-63980680D01*
X207335816Y-63947191D01*
X207403802Y-63926568D01*
X207480640Y-63919000D01*
X208444360Y-63919000D01*
X208521198Y-63926568D01*
X208521198Y-63926568D01*
G37*
G36*
X205981198Y-63926568D02*
X206049184Y-63947191D01*
X206111837Y-63980680D01*
X206166752Y-64025748D01*
X206211820Y-64080663D01*
X206245309Y-64143316D01*
X206265932Y-64211302D01*
X206273500Y-64288140D01*
X206273500Y-65251860D01*
X206265932Y-65328698D01*
X206245309Y-65396684D01*
X206211820Y-65459337D01*
X206166752Y-65514252D01*
X206111837Y-65559320D01*
X206049184Y-65592809D01*
X205981198Y-65613432D01*
X205904360Y-65621000D01*
X204940640Y-65621000D01*
X204863802Y-65613432D01*
X204795816Y-65592809D01*
X204733163Y-65559320D01*
X204678248Y-65514252D01*
X204633180Y-65459337D01*
X204599691Y-65396684D01*
X204579068Y-65328698D01*
X204571500Y-65251860D01*
X204571500Y-64288140D01*
X204579068Y-64211302D01*
X204599691Y-64143316D01*
X204633180Y-64080663D01*
X204678248Y-64025748D01*
X204733163Y-63980680D01*
X204795816Y-63947191D01*
X204863802Y-63926568D01*
X204940640Y-63919000D01*
X205904360Y-63919000D01*
X205981198Y-63926568D01*
X205981198Y-63926568D01*
G37*
G36*
X200901198Y-63926568D02*
X200969184Y-63947191D01*
X201031837Y-63980680D01*
X201086752Y-64025748D01*
X201131820Y-64080663D01*
X201165309Y-64143316D01*
X201185932Y-64211302D01*
X201193500Y-64288140D01*
X201193500Y-65251860D01*
X201185932Y-65328698D01*
X201165309Y-65396684D01*
X201131820Y-65459337D01*
X201086752Y-65514252D01*
X201031837Y-65559320D01*
X200969184Y-65592809D01*
X200901198Y-65613432D01*
X200824360Y-65621000D01*
X199860640Y-65621000D01*
X199783802Y-65613432D01*
X199715816Y-65592809D01*
X199653163Y-65559320D01*
X199598248Y-65514252D01*
X199553180Y-65459337D01*
X199519691Y-65396684D01*
X199499068Y-65328698D01*
X199491500Y-65251860D01*
X199491500Y-64288140D01*
X199499068Y-64211302D01*
X199519691Y-64143316D01*
X199553180Y-64080663D01*
X199598248Y-64025748D01*
X199653163Y-63980680D01*
X199715816Y-63947191D01*
X199783802Y-63926568D01*
X199860640Y-63919000D01*
X200824360Y-63919000D01*
X200901198Y-63926568D01*
X200901198Y-63926568D01*
G37*
G36*
X198361198Y-63926568D02*
X198429184Y-63947191D01*
X198491837Y-63980680D01*
X198546752Y-64025748D01*
X198591820Y-64080663D01*
X198625309Y-64143316D01*
X198645932Y-64211302D01*
X198653500Y-64288140D01*
X198653500Y-65251860D01*
X198645932Y-65328698D01*
X198625309Y-65396684D01*
X198591820Y-65459337D01*
X198546752Y-65514252D01*
X198491837Y-65559320D01*
X198429184Y-65592809D01*
X198361198Y-65613432D01*
X198284360Y-65621000D01*
X197320640Y-65621000D01*
X197243802Y-65613432D01*
X197175816Y-65592809D01*
X197113163Y-65559320D01*
X197058248Y-65514252D01*
X197013180Y-65459337D01*
X196979691Y-65396684D01*
X196959068Y-65328698D01*
X196951500Y-65251860D01*
X196951500Y-64288140D01*
X196959068Y-64211302D01*
X196979691Y-64143316D01*
X197013180Y-64080663D01*
X197058248Y-64025748D01*
X197113163Y-63980680D01*
X197175816Y-63947191D01*
X197243802Y-63926568D01*
X197320640Y-63919000D01*
X198284360Y-63919000D01*
X198361198Y-63926568D01*
X198361198Y-63926568D01*
G37*
G36*
X195821198Y-63926568D02*
X195889184Y-63947191D01*
X195951837Y-63980680D01*
X196006752Y-64025748D01*
X196051820Y-64080663D01*
X196085309Y-64143316D01*
X196105932Y-64211302D01*
X196113500Y-64288140D01*
X196113500Y-65251860D01*
X196105932Y-65328698D01*
X196085309Y-65396684D01*
X196051820Y-65459337D01*
X196006752Y-65514252D01*
X195951837Y-65559320D01*
X195889184Y-65592809D01*
X195821198Y-65613432D01*
X195744360Y-65621000D01*
X194780640Y-65621000D01*
X194703802Y-65613432D01*
X194635816Y-65592809D01*
X194573163Y-65559320D01*
X194518248Y-65514252D01*
X194473180Y-65459337D01*
X194439691Y-65396684D01*
X194419068Y-65328698D01*
X194411500Y-65251860D01*
X194411500Y-64288140D01*
X194419068Y-64211302D01*
X194439691Y-64143316D01*
X194473180Y-64080663D01*
X194518248Y-64025748D01*
X194573163Y-63980680D01*
X194635816Y-63947191D01*
X194703802Y-63926568D01*
X194780640Y-63919000D01*
X195744360Y-63919000D01*
X195821198Y-63926568D01*
X195821198Y-63926568D01*
G37*
G36*
X193281198Y-63926568D02*
X193349184Y-63947191D01*
X193411837Y-63980680D01*
X193466752Y-64025748D01*
X193511820Y-64080663D01*
X193545309Y-64143316D01*
X193565932Y-64211302D01*
X193573500Y-64288140D01*
X193573500Y-65251860D01*
X193565932Y-65328698D01*
X193545309Y-65396684D01*
X193511820Y-65459337D01*
X193466752Y-65514252D01*
X193411837Y-65559320D01*
X193349184Y-65592809D01*
X193281198Y-65613432D01*
X193204360Y-65621000D01*
X192240640Y-65621000D01*
X192163802Y-65613432D01*
X192095816Y-65592809D01*
X192033163Y-65559320D01*
X191978248Y-65514252D01*
X191933180Y-65459337D01*
X191899691Y-65396684D01*
X191879068Y-65328698D01*
X191871500Y-65251860D01*
X191871500Y-64288140D01*
X191879068Y-64211302D01*
X191899691Y-64143316D01*
X191933180Y-64080663D01*
X191978248Y-64025748D01*
X192033163Y-63980680D01*
X192095816Y-63947191D01*
X192163802Y-63926568D01*
X192240640Y-63919000D01*
X193204360Y-63919000D01*
X193281198Y-63926568D01*
X193281198Y-63926568D01*
G37*
G36*
X190741198Y-63926568D02*
X190809184Y-63947191D01*
X190871837Y-63980680D01*
X190926752Y-64025748D01*
X190971820Y-64080663D01*
X191005309Y-64143316D01*
X191025932Y-64211302D01*
X191033500Y-64288140D01*
X191033500Y-65251860D01*
X191025932Y-65328698D01*
X191005309Y-65396684D01*
X190971820Y-65459337D01*
X190926752Y-65514252D01*
X190871837Y-65559320D01*
X190809184Y-65592809D01*
X190741198Y-65613432D01*
X190664360Y-65621000D01*
X189700640Y-65621000D01*
X189623802Y-65613432D01*
X189555816Y-65592809D01*
X189493163Y-65559320D01*
X189438248Y-65514252D01*
X189393180Y-65459337D01*
X189359691Y-65396684D01*
X189339068Y-65328698D01*
X189331500Y-65251860D01*
X189331500Y-64288140D01*
X189339068Y-64211302D01*
X189359691Y-64143316D01*
X189393180Y-64080663D01*
X189438248Y-64025748D01*
X189493163Y-63980680D01*
X189555816Y-63947191D01*
X189623802Y-63926568D01*
X189700640Y-63919000D01*
X190664360Y-63919000D01*
X190741198Y-63926568D01*
X190741198Y-63926568D01*
G37*
G36*
X203441198Y-63926568D02*
X203509184Y-63947191D01*
X203571837Y-63980680D01*
X203626752Y-64025748D01*
X203671820Y-64080663D01*
X203705309Y-64143316D01*
X203725932Y-64211302D01*
X203733500Y-64288140D01*
X203733500Y-65251860D01*
X203725932Y-65328698D01*
X203705309Y-65396684D01*
X203671820Y-65459337D01*
X203626752Y-65514252D01*
X203571837Y-65559320D01*
X203509184Y-65592809D01*
X203441198Y-65613432D01*
X203364360Y-65621000D01*
X202400640Y-65621000D01*
X202323802Y-65613432D01*
X202255816Y-65592809D01*
X202193163Y-65559320D01*
X202138248Y-65514252D01*
X202093180Y-65459337D01*
X202059691Y-65396684D01*
X202039068Y-65328698D01*
X202031500Y-65251860D01*
X202031500Y-64288140D01*
X202039068Y-64211302D01*
X202059691Y-64143316D01*
X202093180Y-64080663D01*
X202138248Y-64025748D01*
X202193163Y-63980680D01*
X202255816Y-63947191D01*
X202323802Y-63926568D01*
X202400640Y-63919000D01*
X203364360Y-63919000D01*
X203441198Y-63926568D01*
X203441198Y-63926568D01*
G37*
G36*
X189920431Y-56815211D02*
X190248192Y-56950974D01*
X190543173Y-57148074D01*
X190794026Y-57398927D01*
X190991126Y-57693908D01*
X191126889Y-58021669D01*
X191196100Y-58369616D01*
X191196100Y-58724384D01*
X191126889Y-59072331D01*
X190991126Y-59400092D01*
X190794026Y-59695073D01*
X190543173Y-59945926D01*
X190248192Y-60143026D01*
X189920431Y-60278789D01*
X189572484Y-60348000D01*
X189217716Y-60348000D01*
X188869769Y-60278789D01*
X188542008Y-60143026D01*
X188247027Y-59945926D01*
X187996174Y-59695073D01*
X187799074Y-59400092D01*
X187663311Y-59072331D01*
X187594100Y-58724384D01*
X187594100Y-58369616D01*
X187663311Y-58021669D01*
X187799074Y-57693908D01*
X187996174Y-57398927D01*
X188247027Y-57148074D01*
X188542008Y-56950974D01*
X188869769Y-56815211D01*
X189217716Y-56746000D01*
X189572484Y-56746000D01*
X189920431Y-56815211D01*
X189920431Y-56815211D01*
G37*
G36*
X237596231Y-56789811D02*
X237923992Y-56925574D01*
X238218973Y-57122674D01*
X238469826Y-57373527D01*
X238666926Y-57668508D01*
X238802689Y-57996269D01*
X238871900Y-58344216D01*
X238871900Y-58698984D01*
X238802689Y-59046931D01*
X238666926Y-59374692D01*
X238469826Y-59669673D01*
X238218973Y-59920526D01*
X237923992Y-60117626D01*
X237596231Y-60253389D01*
X237248284Y-60322600D01*
X236893516Y-60322600D01*
X236545569Y-60253389D01*
X236217808Y-60117626D01*
X235922827Y-59920526D01*
X235671974Y-59669673D01*
X235474874Y-59374692D01*
X235339111Y-59046931D01*
X235269900Y-58698984D01*
X235269900Y-58344216D01*
X235339111Y-57996269D01*
X235474874Y-57668508D01*
X235671974Y-57373527D01*
X235922827Y-57122674D01*
X236217808Y-56925574D01*
X236545569Y-56789811D01*
X236893516Y-56720600D01*
X237248284Y-56720600D01*
X237596231Y-56789811D01*
X237596231Y-56789811D01*
G37*
G36*
X205848528Y-58033503D02*
X206003400Y-58097653D01*
X206142781Y-58190785D01*
X206261315Y-58309319D01*
X206354447Y-58448700D01*
X206418597Y-58603572D01*
X206451300Y-58767984D01*
X206451300Y-58935616D01*
X206418597Y-59100028D01*
X206354447Y-59254900D01*
X206261315Y-59394281D01*
X206142781Y-59512815D01*
X206003400Y-59605947D01*
X205848528Y-59670097D01*
X205684116Y-59702800D01*
X205516484Y-59702800D01*
X205352072Y-59670097D01*
X205197200Y-59605947D01*
X205057819Y-59512815D01*
X204939285Y-59394281D01*
X204846153Y-59254900D01*
X204782003Y-59100028D01*
X204749300Y-58935616D01*
X204749300Y-58767984D01*
X204782003Y-58603572D01*
X204846153Y-58448700D01*
X204939285Y-58309319D01*
X205057819Y-58190785D01*
X205197200Y-58097653D01*
X205352072Y-58033503D01*
X205516484Y-58000800D01*
X205684116Y-58000800D01*
X205848528Y-58033503D01*
X205848528Y-58033503D01*
G37*
G36*
X208388528Y-58033503D02*
X208543400Y-58097653D01*
X208682781Y-58190785D01*
X208801315Y-58309319D01*
X208894447Y-58448700D01*
X208958597Y-58603572D01*
X208991300Y-58767984D01*
X208991300Y-58935616D01*
X208958597Y-59100028D01*
X208894447Y-59254900D01*
X208801315Y-59394281D01*
X208682781Y-59512815D01*
X208543400Y-59605947D01*
X208388528Y-59670097D01*
X208224116Y-59702800D01*
X208056484Y-59702800D01*
X207892072Y-59670097D01*
X207737200Y-59605947D01*
X207597819Y-59512815D01*
X207479285Y-59394281D01*
X207386153Y-59254900D01*
X207322003Y-59100028D01*
X207289300Y-58935616D01*
X207289300Y-58767984D01*
X207322003Y-58603572D01*
X207386153Y-58448700D01*
X207479285Y-58309319D01*
X207597819Y-58190785D01*
X207737200Y-58097653D01*
X207892072Y-58033503D01*
X208056484Y-58000800D01*
X208224116Y-58000800D01*
X208388528Y-58033503D01*
X208388528Y-58033503D01*
G37*
G36*
X210928528Y-58033503D02*
X211083400Y-58097653D01*
X211222781Y-58190785D01*
X211341315Y-58309319D01*
X211434447Y-58448700D01*
X211498597Y-58603572D01*
X211531300Y-58767984D01*
X211531300Y-58935616D01*
X211498597Y-59100028D01*
X211434447Y-59254900D01*
X211341315Y-59394281D01*
X211222781Y-59512815D01*
X211083400Y-59605947D01*
X210928528Y-59670097D01*
X210764116Y-59702800D01*
X210596484Y-59702800D01*
X210432072Y-59670097D01*
X210277200Y-59605947D01*
X210137819Y-59512815D01*
X210019285Y-59394281D01*
X209926153Y-59254900D01*
X209862003Y-59100028D01*
X209829300Y-58935616D01*
X209829300Y-58767984D01*
X209862003Y-58603572D01*
X209926153Y-58448700D01*
X210019285Y-58309319D01*
X210137819Y-58190785D01*
X210277200Y-58097653D01*
X210432072Y-58033503D01*
X210596484Y-58000800D01*
X210764116Y-58000800D01*
X210928528Y-58033503D01*
X210928528Y-58033503D01*
G37*
G36*
X213468528Y-58033503D02*
X213623400Y-58097653D01*
X213762781Y-58190785D01*
X213881315Y-58309319D01*
X213974447Y-58448700D01*
X214038597Y-58603572D01*
X214071300Y-58767984D01*
X214071300Y-58935616D01*
X214038597Y-59100028D01*
X213974447Y-59254900D01*
X213881315Y-59394281D01*
X213762781Y-59512815D01*
X213623400Y-59605947D01*
X213468528Y-59670097D01*
X213304116Y-59702800D01*
X213136484Y-59702800D01*
X212972072Y-59670097D01*
X212817200Y-59605947D01*
X212677819Y-59512815D01*
X212559285Y-59394281D01*
X212466153Y-59254900D01*
X212402003Y-59100028D01*
X212369300Y-58935616D01*
X212369300Y-58767984D01*
X212402003Y-58603572D01*
X212466153Y-58448700D01*
X212559285Y-58309319D01*
X212677819Y-58190785D01*
X212817200Y-58097653D01*
X212972072Y-58033503D01*
X213136484Y-58000800D01*
X213304116Y-58000800D01*
X213468528Y-58033503D01*
X213468528Y-58033503D01*
G37*
G36*
X216008528Y-58033503D02*
X216163400Y-58097653D01*
X216302781Y-58190785D01*
X216421315Y-58309319D01*
X216514447Y-58448700D01*
X216578597Y-58603572D01*
X216611300Y-58767984D01*
X216611300Y-58935616D01*
X216578597Y-59100028D01*
X216514447Y-59254900D01*
X216421315Y-59394281D01*
X216302781Y-59512815D01*
X216163400Y-59605947D01*
X216008528Y-59670097D01*
X215844116Y-59702800D01*
X215676484Y-59702800D01*
X215512072Y-59670097D01*
X215357200Y-59605947D01*
X215217819Y-59512815D01*
X215099285Y-59394281D01*
X215006153Y-59254900D01*
X214942003Y-59100028D01*
X214909300Y-58935616D01*
X214909300Y-58767984D01*
X214942003Y-58603572D01*
X215006153Y-58448700D01*
X215099285Y-58309319D01*
X215217819Y-58190785D01*
X215357200Y-58097653D01*
X215512072Y-58033503D01*
X215676484Y-58000800D01*
X215844116Y-58000800D01*
X216008528Y-58033503D01*
X216008528Y-58033503D01*
G37*
G36*
X218548528Y-58033503D02*
X218703400Y-58097653D01*
X218842781Y-58190785D01*
X218961315Y-58309319D01*
X219054447Y-58448700D01*
X219118597Y-58603572D01*
X219151300Y-58767984D01*
X219151300Y-58935616D01*
X219118597Y-59100028D01*
X219054447Y-59254900D01*
X218961315Y-59394281D01*
X218842781Y-59512815D01*
X218703400Y-59605947D01*
X218548528Y-59670097D01*
X218384116Y-59702800D01*
X218216484Y-59702800D01*
X218052072Y-59670097D01*
X217897200Y-59605947D01*
X217757819Y-59512815D01*
X217639285Y-59394281D01*
X217546153Y-59254900D01*
X217482003Y-59100028D01*
X217449300Y-58935616D01*
X217449300Y-58767984D01*
X217482003Y-58603572D01*
X217546153Y-58448700D01*
X217639285Y-58309319D01*
X217757819Y-58190785D01*
X217897200Y-58097653D01*
X218052072Y-58033503D01*
X218216484Y-58000800D01*
X218384116Y-58000800D01*
X218548528Y-58033503D01*
X218548528Y-58033503D01*
G37*
G36*
X221088528Y-58033503D02*
X221243400Y-58097653D01*
X221382781Y-58190785D01*
X221501315Y-58309319D01*
X221594447Y-58448700D01*
X221658597Y-58603572D01*
X221691300Y-58767984D01*
X221691300Y-58935616D01*
X221658597Y-59100028D01*
X221594447Y-59254900D01*
X221501315Y-59394281D01*
X221382781Y-59512815D01*
X221243400Y-59605947D01*
X221088528Y-59670097D01*
X220924116Y-59702800D01*
X220756484Y-59702800D01*
X220592072Y-59670097D01*
X220437200Y-59605947D01*
X220297819Y-59512815D01*
X220179285Y-59394281D01*
X220086153Y-59254900D01*
X220022003Y-59100028D01*
X219989300Y-58935616D01*
X219989300Y-58767984D01*
X220022003Y-58603572D01*
X220086153Y-58448700D01*
X220179285Y-58309319D01*
X220297819Y-58190785D01*
X220437200Y-58097653D01*
X220592072Y-58033503D01*
X220756484Y-58000800D01*
X220924116Y-58000800D01*
X221088528Y-58033503D01*
X221088528Y-58033503D01*
G37*
G36*
X231934328Y-57169903D02*
X232089200Y-57234053D01*
X232228581Y-57327185D01*
X232347115Y-57445719D01*
X232440247Y-57585100D01*
X232504397Y-57739972D01*
X232537100Y-57904384D01*
X232537100Y-58072016D01*
X232504397Y-58236428D01*
X232440247Y-58391300D01*
X232347115Y-58530681D01*
X232228581Y-58649215D01*
X232089200Y-58742347D01*
X231934328Y-58806497D01*
X231769916Y-58839200D01*
X231602284Y-58839200D01*
X231437872Y-58806497D01*
X231283000Y-58742347D01*
X231143619Y-58649215D01*
X231025085Y-58530681D01*
X230931953Y-58391300D01*
X230867803Y-58236428D01*
X230835100Y-58072016D01*
X230835100Y-57904384D01*
X230867803Y-57739972D01*
X230931953Y-57585100D01*
X231025085Y-57445719D01*
X231143619Y-57327185D01*
X231283000Y-57234053D01*
X231437872Y-57169903D01*
X231602284Y-57137200D01*
X231769916Y-57137200D01*
X231934328Y-57169903D01*
X231934328Y-57169903D01*
G37*
G36*
X229394328Y-57169903D02*
X229549200Y-57234053D01*
X229688581Y-57327185D01*
X229807115Y-57445719D01*
X229900247Y-57585100D01*
X229964397Y-57739972D01*
X229997100Y-57904384D01*
X229997100Y-58072016D01*
X229964397Y-58236428D01*
X229900247Y-58391300D01*
X229807115Y-58530681D01*
X229688581Y-58649215D01*
X229549200Y-58742347D01*
X229394328Y-58806497D01*
X229229916Y-58839200D01*
X229062284Y-58839200D01*
X228897872Y-58806497D01*
X228743000Y-58742347D01*
X228603619Y-58649215D01*
X228485085Y-58530681D01*
X228391953Y-58391300D01*
X228327803Y-58236428D01*
X228295100Y-58072016D01*
X228295100Y-57904384D01*
X228327803Y-57739972D01*
X228391953Y-57585100D01*
X228485085Y-57445719D01*
X228603619Y-57327185D01*
X228743000Y-57234053D01*
X228897872Y-57169903D01*
X229062284Y-57137200D01*
X229229916Y-57137200D01*
X229394328Y-57169903D01*
X229394328Y-57169903D01*
G37*
M02*
