G04 #@! TF.GenerationSoftware,KiCad,Pcbnew,5.0.2+dfsg1-1~bpo9+1*
G04 #@! TF.CreationDate,2019-07-11T09:36:16+01:00*
G04 #@! TF.ProjectId,arduboy_with_flashcart_port_smd_back,61726475-626f-4795-9f77-6974685f666c,rev?*
G04 #@! TF.SameCoordinates,Original*
G04 #@! TF.FileFunction,Soldermask,Top*
G04 #@! TF.FilePolarity,Negative*
%FSLAX46Y46*%
G04 Gerber Fmt 4.6, Leading zero omitted, Abs format (unit mm)*
G04 Created by KiCad (PCBNEW 5.0.2+dfsg1-1~bpo9+1) date Thu 11 Jul 2019 09:36:16 BST*
%MOMM*%
%LPD*%
G01*
G04 APERTURE LIST*
%ADD10C,0.100000*%
G04 APERTURE END LIST*
D10*
G36*
X97540631Y-121966211D02*
X97868392Y-122101974D01*
X98163373Y-122299074D01*
X98414226Y-122549927D01*
X98611326Y-122844908D01*
X98747089Y-123172669D01*
X98816300Y-123520616D01*
X98816300Y-123875384D01*
X98747089Y-124223331D01*
X98611326Y-124551092D01*
X98414226Y-124846073D01*
X98163373Y-125096926D01*
X97868392Y-125294026D01*
X97540631Y-125429789D01*
X97192684Y-125499000D01*
X96837916Y-125499000D01*
X96489969Y-125429789D01*
X96162208Y-125294026D01*
X95867227Y-125096926D01*
X95616374Y-124846073D01*
X95419274Y-124551092D01*
X95283511Y-124223331D01*
X95214300Y-123875384D01*
X95214300Y-123520616D01*
X95283511Y-123172669D01*
X95419274Y-122844908D01*
X95616374Y-122549927D01*
X95867227Y-122299074D01*
X96162208Y-122101974D01*
X96489969Y-121966211D01*
X96837916Y-121897000D01*
X97192684Y-121897000D01*
X97540631Y-121966211D01*
X97540631Y-121966211D01*
G37*
G36*
X49864831Y-121966211D02*
X50192592Y-122101974D01*
X50487573Y-122299074D01*
X50738426Y-122549927D01*
X50935526Y-122844908D01*
X51071289Y-123172669D01*
X51140500Y-123520616D01*
X51140500Y-123875384D01*
X51071289Y-124223331D01*
X50935526Y-124551092D01*
X50738426Y-124846073D01*
X50487573Y-125096926D01*
X50192592Y-125294026D01*
X49864831Y-125429789D01*
X49516884Y-125499000D01*
X49162116Y-125499000D01*
X48814169Y-125429789D01*
X48486408Y-125294026D01*
X48191427Y-125096926D01*
X47940574Y-124846073D01*
X47743474Y-124551092D01*
X47607711Y-124223331D01*
X47538500Y-123875384D01*
X47538500Y-123520616D01*
X47607711Y-123172669D01*
X47743474Y-122844908D01*
X47940574Y-122549927D01*
X48191427Y-122299074D01*
X48486408Y-122101974D01*
X48814169Y-121966211D01*
X49162116Y-121897000D01*
X49516884Y-121897000D01*
X49864831Y-121966211D01*
X49864831Y-121966211D01*
G37*
G36*
X48914628Y-88526203D02*
X49069500Y-88590353D01*
X49208881Y-88683485D01*
X49327415Y-88802019D01*
X49420547Y-88941400D01*
X49484697Y-89096272D01*
X49517400Y-89260684D01*
X49517400Y-89428316D01*
X49484697Y-89592728D01*
X49420547Y-89747600D01*
X49327415Y-89886981D01*
X49208881Y-90005515D01*
X49069500Y-90098647D01*
X48914628Y-90162797D01*
X48750216Y-90195500D01*
X48582584Y-90195500D01*
X48418172Y-90162797D01*
X48263300Y-90098647D01*
X48123919Y-90005515D01*
X48005385Y-89886981D01*
X47912253Y-89747600D01*
X47848103Y-89592728D01*
X47815400Y-89428316D01*
X47815400Y-89260684D01*
X47848103Y-89096272D01*
X47912253Y-88941400D01*
X48005385Y-88802019D01*
X48123919Y-88683485D01*
X48263300Y-88590353D01*
X48418172Y-88526203D01*
X48582584Y-88493500D01*
X48750216Y-88493500D01*
X48914628Y-88526203D01*
X48914628Y-88526203D01*
G37*
G36*
X48914628Y-86494203D02*
X49069500Y-86558353D01*
X49208881Y-86651485D01*
X49327415Y-86770019D01*
X49420547Y-86909400D01*
X49484697Y-87064272D01*
X49517400Y-87228684D01*
X49517400Y-87396316D01*
X49484697Y-87560728D01*
X49420547Y-87715600D01*
X49327415Y-87854981D01*
X49208881Y-87973515D01*
X49069500Y-88066647D01*
X48914628Y-88130797D01*
X48750216Y-88163500D01*
X48582584Y-88163500D01*
X48418172Y-88130797D01*
X48263300Y-88066647D01*
X48123919Y-87973515D01*
X48005385Y-87854981D01*
X47912253Y-87715600D01*
X47848103Y-87560728D01*
X47815400Y-87396316D01*
X47815400Y-87228684D01*
X47848103Y-87064272D01*
X47912253Y-86909400D01*
X48005385Y-86770019D01*
X48123919Y-86651485D01*
X48263300Y-86558353D01*
X48418172Y-86494203D01*
X48582584Y-86461500D01*
X48750216Y-86461500D01*
X48914628Y-86494203D01*
X48914628Y-86494203D01*
G37*
G36*
X98241428Y-81909503D02*
X98396300Y-81973653D01*
X98535681Y-82066785D01*
X98654215Y-82185319D01*
X98747347Y-82324700D01*
X98811497Y-82479572D01*
X98844200Y-82643984D01*
X98844200Y-82811616D01*
X98811497Y-82976028D01*
X98747347Y-83130900D01*
X98654215Y-83270281D01*
X98535681Y-83388815D01*
X98396300Y-83481947D01*
X98241428Y-83546097D01*
X98077016Y-83578800D01*
X97909384Y-83578800D01*
X97744972Y-83546097D01*
X97590100Y-83481947D01*
X97450719Y-83388815D01*
X97332185Y-83270281D01*
X97239053Y-83130900D01*
X97174903Y-82976028D01*
X97142200Y-82811616D01*
X97142200Y-82643984D01*
X97174903Y-82479572D01*
X97239053Y-82324700D01*
X97332185Y-82185319D01*
X97450719Y-82066785D01*
X97590100Y-81973653D01*
X97744972Y-81909503D01*
X97909384Y-81876800D01*
X98077016Y-81876800D01*
X98241428Y-81909503D01*
X98241428Y-81909503D01*
G37*
G36*
X71228528Y-81807903D02*
X71383400Y-81872053D01*
X71522781Y-81965185D01*
X71641315Y-82083719D01*
X71734447Y-82223100D01*
X71798597Y-82377972D01*
X71831300Y-82542384D01*
X71831300Y-82710016D01*
X71798597Y-82874428D01*
X71734447Y-83029300D01*
X71641315Y-83168681D01*
X71522781Y-83287215D01*
X71383400Y-83380347D01*
X71228528Y-83444497D01*
X71064116Y-83477200D01*
X70896484Y-83477200D01*
X70732072Y-83444497D01*
X70577200Y-83380347D01*
X70437819Y-83287215D01*
X70319285Y-83168681D01*
X70226153Y-83029300D01*
X70162003Y-82874428D01*
X70129300Y-82710016D01*
X70129300Y-82542384D01*
X70162003Y-82377972D01*
X70226153Y-82223100D01*
X70319285Y-82083719D01*
X70437819Y-81965185D01*
X70577200Y-81872053D01*
X70732072Y-81807903D01*
X70896484Y-81775200D01*
X71064116Y-81775200D01*
X71228528Y-81807903D01*
X71228528Y-81807903D01*
G37*
G36*
X48368528Y-81744403D02*
X48523400Y-81808553D01*
X48662781Y-81901685D01*
X48781315Y-82020219D01*
X48874447Y-82159600D01*
X48938597Y-82314472D01*
X48971300Y-82478884D01*
X48971300Y-82646516D01*
X48938597Y-82810928D01*
X48874447Y-82965800D01*
X48781315Y-83105181D01*
X48662781Y-83223715D01*
X48523400Y-83316847D01*
X48368528Y-83380997D01*
X48204116Y-83413700D01*
X48036484Y-83413700D01*
X47872072Y-83380997D01*
X47717200Y-83316847D01*
X47577819Y-83223715D01*
X47459285Y-83105181D01*
X47366153Y-82965800D01*
X47302003Y-82810928D01*
X47269300Y-82646516D01*
X47269300Y-82478884D01*
X47302003Y-82314472D01*
X47366153Y-82159600D01*
X47459285Y-82020219D01*
X47577819Y-81901685D01*
X47717200Y-81808553D01*
X47872072Y-81744403D01*
X48036484Y-81711700D01*
X48204116Y-81711700D01*
X48368528Y-81744403D01*
X48368528Y-81744403D01*
G37*
G36*
X80728128Y-78505903D02*
X80883000Y-78570053D01*
X81022381Y-78663185D01*
X81140915Y-78781719D01*
X81234047Y-78921100D01*
X81298197Y-79075972D01*
X81330900Y-79240384D01*
X81330900Y-79408016D01*
X81298197Y-79572428D01*
X81234047Y-79727300D01*
X81140915Y-79866681D01*
X81022381Y-79985215D01*
X80883000Y-80078347D01*
X80728128Y-80142497D01*
X80563716Y-80175200D01*
X80396084Y-80175200D01*
X80231672Y-80142497D01*
X80076800Y-80078347D01*
X79937419Y-79985215D01*
X79818885Y-79866681D01*
X79725753Y-79727300D01*
X79661603Y-79572428D01*
X79628900Y-79408016D01*
X79628900Y-79240384D01*
X79661603Y-79075972D01*
X79725753Y-78921100D01*
X79818885Y-78781719D01*
X79937419Y-78663185D01*
X80076800Y-78570053D01*
X80231672Y-78505903D01*
X80396084Y-78473200D01*
X80563716Y-78473200D01*
X80728128Y-78505903D01*
X80728128Y-78505903D01*
G37*
G36*
X71228528Y-78188403D02*
X71383400Y-78252553D01*
X71522781Y-78345685D01*
X71641315Y-78464219D01*
X71734447Y-78603600D01*
X71798597Y-78758472D01*
X71831300Y-78922884D01*
X71831300Y-79090516D01*
X71798597Y-79254928D01*
X71734447Y-79409800D01*
X71641315Y-79549181D01*
X71522781Y-79667715D01*
X71383400Y-79760847D01*
X71228528Y-79824997D01*
X71064116Y-79857700D01*
X70896484Y-79857700D01*
X70732072Y-79824997D01*
X70577200Y-79760847D01*
X70437819Y-79667715D01*
X70319285Y-79549181D01*
X70226153Y-79409800D01*
X70162003Y-79254928D01*
X70129300Y-79090516D01*
X70129300Y-78922884D01*
X70162003Y-78758472D01*
X70226153Y-78603600D01*
X70319285Y-78464219D01*
X70437819Y-78345685D01*
X70577200Y-78252553D01*
X70732072Y-78188403D01*
X70896484Y-78155700D01*
X71064116Y-78155700D01*
X71228528Y-78188403D01*
X71228528Y-78188403D01*
G37*
G36*
X80728128Y-71597103D02*
X80883000Y-71661253D01*
X81022381Y-71754385D01*
X81140915Y-71872919D01*
X81234047Y-72012300D01*
X81298197Y-72167172D01*
X81330900Y-72331584D01*
X81330900Y-72499216D01*
X81298197Y-72663628D01*
X81234047Y-72818500D01*
X81140915Y-72957881D01*
X81022381Y-73076415D01*
X80883000Y-73169547D01*
X80728128Y-73233697D01*
X80563716Y-73266400D01*
X80396084Y-73266400D01*
X80231672Y-73233697D01*
X80076800Y-73169547D01*
X79937419Y-73076415D01*
X79818885Y-72957881D01*
X79725753Y-72818500D01*
X79661603Y-72663628D01*
X79628900Y-72499216D01*
X79628900Y-72331584D01*
X79661603Y-72167172D01*
X79725753Y-72012300D01*
X79818885Y-71872919D01*
X79937419Y-71754385D01*
X80076800Y-71661253D01*
X80231672Y-71597103D01*
X80396084Y-71564400D01*
X80563716Y-71564400D01*
X80728128Y-71597103D01*
X80728128Y-71597103D01*
G37*
G36*
X71165028Y-71203403D02*
X71319900Y-71267553D01*
X71459281Y-71360685D01*
X71577815Y-71479219D01*
X71670947Y-71618600D01*
X71735097Y-71773472D01*
X71767800Y-71937884D01*
X71767800Y-72105516D01*
X71735097Y-72269928D01*
X71670947Y-72424800D01*
X71577815Y-72564181D01*
X71459281Y-72682715D01*
X71319900Y-72775847D01*
X71165028Y-72839997D01*
X71000616Y-72872700D01*
X70832984Y-72872700D01*
X70668572Y-72839997D01*
X70513700Y-72775847D01*
X70374319Y-72682715D01*
X70255785Y-72564181D01*
X70162653Y-72424800D01*
X70098503Y-72269928D01*
X70065800Y-72105516D01*
X70065800Y-71937884D01*
X70098503Y-71773472D01*
X70162653Y-71618600D01*
X70255785Y-71479219D01*
X70374319Y-71360685D01*
X70513700Y-71267553D01*
X70668572Y-71203403D01*
X70832984Y-71170700D01*
X71000616Y-71170700D01*
X71165028Y-71203403D01*
X71165028Y-71203403D01*
G37*
G36*
X98241428Y-68193503D02*
X98396300Y-68257653D01*
X98535681Y-68350785D01*
X98654215Y-68469319D01*
X98747347Y-68608700D01*
X98811497Y-68763572D01*
X98844200Y-68927984D01*
X98844200Y-69095616D01*
X98811497Y-69260028D01*
X98747347Y-69414900D01*
X98654215Y-69554281D01*
X98535681Y-69672815D01*
X98396300Y-69765947D01*
X98241428Y-69830097D01*
X98077016Y-69862800D01*
X97909384Y-69862800D01*
X97744972Y-69830097D01*
X97590100Y-69765947D01*
X97450719Y-69672815D01*
X97332185Y-69554281D01*
X97239053Y-69414900D01*
X97174903Y-69260028D01*
X97142200Y-69095616D01*
X97142200Y-68927984D01*
X97174903Y-68763572D01*
X97239053Y-68608700D01*
X97332185Y-68469319D01*
X97450719Y-68350785D01*
X97590100Y-68257653D01*
X97744972Y-68193503D01*
X97909384Y-68160800D01*
X98077016Y-68160800D01*
X98241428Y-68193503D01*
X98241428Y-68193503D01*
G37*
G36*
X48381228Y-68028403D02*
X48536100Y-68092553D01*
X48675481Y-68185685D01*
X48794015Y-68304219D01*
X48887147Y-68443600D01*
X48951297Y-68598472D01*
X48984000Y-68762884D01*
X48984000Y-68930516D01*
X48951297Y-69094928D01*
X48887147Y-69249800D01*
X48794015Y-69389181D01*
X48675481Y-69507715D01*
X48536100Y-69600847D01*
X48381228Y-69664997D01*
X48216816Y-69697700D01*
X48049184Y-69697700D01*
X47884772Y-69664997D01*
X47729900Y-69600847D01*
X47590519Y-69507715D01*
X47471985Y-69389181D01*
X47378853Y-69249800D01*
X47314703Y-69094928D01*
X47282000Y-68930516D01*
X47282000Y-68762884D01*
X47314703Y-68598472D01*
X47378853Y-68443600D01*
X47471985Y-68304219D01*
X47590519Y-68185685D01*
X47729900Y-68092553D01*
X47884772Y-68028403D01*
X48049184Y-67995700D01*
X48216816Y-67995700D01*
X48381228Y-68028403D01*
X48381228Y-68028403D01*
G37*
G36*
X71165028Y-67952203D02*
X71319900Y-68016353D01*
X71459281Y-68109485D01*
X71577815Y-68228019D01*
X71670947Y-68367400D01*
X71735097Y-68522272D01*
X71767800Y-68686684D01*
X71767800Y-68854316D01*
X71735097Y-69018728D01*
X71670947Y-69173600D01*
X71577815Y-69312981D01*
X71459281Y-69431515D01*
X71319900Y-69524647D01*
X71165028Y-69588797D01*
X71000616Y-69621500D01*
X70832984Y-69621500D01*
X70668572Y-69588797D01*
X70513700Y-69524647D01*
X70374319Y-69431515D01*
X70255785Y-69312981D01*
X70162653Y-69173600D01*
X70098503Y-69018728D01*
X70065800Y-68854316D01*
X70065800Y-68686684D01*
X70098503Y-68522272D01*
X70162653Y-68367400D01*
X70255785Y-68228019D01*
X70374319Y-68109485D01*
X70513700Y-68016353D01*
X70668572Y-67952203D01*
X70832984Y-67919500D01*
X71000616Y-67919500D01*
X71165028Y-67952203D01*
X71165028Y-67952203D01*
G37*
G36*
X58540800Y-65757500D02*
X57638800Y-65757500D01*
X57638800Y-63655500D01*
X58540800Y-63655500D01*
X58540800Y-65757500D01*
X58540800Y-65757500D01*
G37*
G36*
X56839000Y-65757500D02*
X55937000Y-65757500D01*
X55937000Y-63655500D01*
X56839000Y-63655500D01*
X56839000Y-65757500D01*
X56839000Y-65757500D01*
G37*
G36*
X61550700Y-65757500D02*
X60648700Y-65757500D01*
X60648700Y-63655500D01*
X61550700Y-63655500D01*
X61550700Y-65757500D01*
X61550700Y-65757500D01*
G37*
G36*
X49864831Y-60498211D02*
X50192592Y-60633974D01*
X50487573Y-60831074D01*
X50738426Y-61081927D01*
X50935526Y-61376908D01*
X51071289Y-61704669D01*
X51140500Y-62052616D01*
X51140500Y-62407384D01*
X51071289Y-62755331D01*
X50935526Y-63083092D01*
X50738426Y-63378073D01*
X50487573Y-63628926D01*
X50192592Y-63826026D01*
X49864831Y-63961789D01*
X49516884Y-64031000D01*
X49162116Y-64031000D01*
X48814169Y-63961789D01*
X48486408Y-63826026D01*
X48191427Y-63628926D01*
X47940574Y-63378073D01*
X47743474Y-63083092D01*
X47607711Y-62755331D01*
X47538500Y-62407384D01*
X47538500Y-62052616D01*
X47607711Y-61704669D01*
X47743474Y-61376908D01*
X47940574Y-61081927D01*
X48191427Y-60831074D01*
X48486408Y-60633974D01*
X48814169Y-60498211D01*
X49162116Y-60429000D01*
X49516884Y-60429000D01*
X49864831Y-60498211D01*
X49864831Y-60498211D01*
G37*
G36*
X97540631Y-60472811D02*
X97868392Y-60608574D01*
X98163373Y-60805674D01*
X98414226Y-61056527D01*
X98611326Y-61351508D01*
X98747089Y-61679269D01*
X98816300Y-62027216D01*
X98816300Y-62381984D01*
X98747089Y-62729931D01*
X98611326Y-63057692D01*
X98414226Y-63352673D01*
X98163373Y-63603526D01*
X97868392Y-63800626D01*
X97540631Y-63936389D01*
X97192684Y-64005600D01*
X96837916Y-64005600D01*
X96489969Y-63936389D01*
X96162208Y-63800626D01*
X95867227Y-63603526D01*
X95616374Y-63352673D01*
X95419274Y-63057692D01*
X95283511Y-62729931D01*
X95214300Y-62381984D01*
X95214300Y-62027216D01*
X95283511Y-61679269D01*
X95419274Y-61351508D01*
X95616374Y-61056527D01*
X95867227Y-60805674D01*
X96162208Y-60608574D01*
X96489969Y-60472811D01*
X96837916Y-60403600D01*
X97192684Y-60403600D01*
X97540631Y-60472811D01*
X97540631Y-60472811D01*
G37*
G36*
X63627900Y-63836700D02*
X62025900Y-63836700D01*
X62025900Y-62934700D01*
X63627900Y-62934700D01*
X63627900Y-63836700D01*
X63627900Y-63836700D01*
G37*
G36*
X55461800Y-63824000D02*
X53859800Y-63824000D01*
X53859800Y-62922000D01*
X55461800Y-62922000D01*
X55461800Y-63824000D01*
X55461800Y-63824000D01*
G37*
G36*
X89338728Y-60852903D02*
X89493600Y-60917053D01*
X89632981Y-61010185D01*
X89751515Y-61128719D01*
X89844647Y-61268100D01*
X89908797Y-61422972D01*
X89941500Y-61587384D01*
X89941500Y-61755016D01*
X89908797Y-61919428D01*
X89844647Y-62074300D01*
X89751515Y-62213681D01*
X89632981Y-62332215D01*
X89493600Y-62425347D01*
X89338728Y-62489497D01*
X89174316Y-62522200D01*
X89006684Y-62522200D01*
X88842272Y-62489497D01*
X88687400Y-62425347D01*
X88548019Y-62332215D01*
X88429485Y-62213681D01*
X88336353Y-62074300D01*
X88272203Y-61919428D01*
X88239500Y-61755016D01*
X88239500Y-61587384D01*
X88272203Y-61422972D01*
X88336353Y-61268100D01*
X88429485Y-61128719D01*
X88548019Y-61010185D01*
X88687400Y-60917053D01*
X88842272Y-60852903D01*
X89006684Y-60820200D01*
X89174316Y-60820200D01*
X89338728Y-60852903D01*
X89338728Y-60852903D01*
G37*
G36*
X91878728Y-60852903D02*
X92033600Y-60917053D01*
X92172981Y-61010185D01*
X92291515Y-61128719D01*
X92384647Y-61268100D01*
X92448797Y-61422972D01*
X92481500Y-61587384D01*
X92481500Y-61755016D01*
X92448797Y-61919428D01*
X92384647Y-62074300D01*
X92291515Y-62213681D01*
X92172981Y-62332215D01*
X92033600Y-62425347D01*
X91878728Y-62489497D01*
X91714316Y-62522200D01*
X91546684Y-62522200D01*
X91382272Y-62489497D01*
X91227400Y-62425347D01*
X91088019Y-62332215D01*
X90969485Y-62213681D01*
X90876353Y-62074300D01*
X90812203Y-61919428D01*
X90779500Y-61755016D01*
X90779500Y-61587384D01*
X90812203Y-61422972D01*
X90876353Y-61268100D01*
X90969485Y-61128719D01*
X91088019Y-61010185D01*
X91227400Y-60917053D01*
X91382272Y-60852903D01*
X91546684Y-60820200D01*
X91714316Y-60820200D01*
X91878728Y-60852903D01*
X91878728Y-60852903D01*
G37*
G36*
X55474500Y-61715800D02*
X53872500Y-61715800D01*
X53872500Y-60813800D01*
X55474500Y-60813800D01*
X55474500Y-61715800D01*
X55474500Y-61715800D01*
G37*
G36*
X63627900Y-61715800D02*
X62025900Y-61715800D01*
X62025900Y-60813800D01*
X63627900Y-60813800D01*
X63627900Y-61715800D01*
X63627900Y-61715800D01*
G37*
M02*
