G04 #@! TF.GenerationSoftware,KiCad,Pcbnew,5.0.2+dfsg1-1~bpo9+1*
G04 #@! TF.CreationDate,2019-07-11T09:36:16+01:00*
G04 #@! TF.ProjectId,arduboy_with_flashcart_port_smd_back,61726475-626f-4795-9f77-6974685f666c,rev?*
G04 #@! TF.SameCoordinates,Original*
G04 #@! TF.FileFunction,Copper,L2,Bot*
G04 #@! TF.FilePolarity,Positive*
%FSLAX46Y46*%
G04 Gerber Fmt 4.6, Leading zero omitted, Abs format (unit mm)*
G04 Created by KiCad (PCBNEW 5.0.2+dfsg1-1~bpo9+1) date Thu 11 Jul 2019 09:36:16 BST*
%MOMM*%
%LPD*%
G01*
G04 APERTURE LIST*
G04 #@! TA.AperFunction,ComponentPad*
%ADD10C,1.600000*%
G04 #@! TD*
G04 #@! TA.AperFunction,ComponentPad*
%ADD11C,3.500000*%
G04 #@! TD*
G04 #@! TA.AperFunction,Conductor*
%ADD12C,0.254000*%
G04 #@! TD*
G04 APERTURE END LIST*
D10*
G04 #@! TO.P,U1,1*
G04 #@! TO.N,Net-(SW1-Pad2)*
X97993200Y-82727800D03*
G04 #@! TO.P,U1,2*
G04 #@! TO.N,Net-(U1-Pad2)*
X97993200Y-69011800D03*
G04 #@! TO.P,U1,3*
G04 #@! TO.N,Net-(U1-Pad3)*
X80479900Y-79324200D03*
G04 #@! TO.P,U1,4*
G04 #@! TO.N,Net-(U1-Pad4)*
X80479900Y-72415400D03*
G04 #@! TD*
D11*
G04 #@! TO.P,U2,1*
G04 #@! TO.N,Net-(U2-Pad1)*
X49339500Y-123698000D03*
G04 #@! TD*
G04 #@! TO.P,U5,1*
G04 #@! TO.N,Net-(U5-Pad1)*
X49339500Y-62230000D03*
G04 #@! TD*
G04 #@! TO.P,U6,1*
G04 #@! TO.N,Net-(U6-Pad1)*
X97015300Y-123698000D03*
G04 #@! TD*
G04 #@! TO.P,U7,1*
G04 #@! TO.N,Net-(U7-Pad1)*
X97015300Y-62204600D03*
G04 #@! TD*
D10*
G04 #@! TO.P,U8,1*
G04 #@! TO.N,Net-(U1-Pad3)*
X91630500Y-61671200D03*
G04 #@! TO.P,U8,2*
G04 #@! TO.N,Net-(U1-Pad4)*
X89090500Y-61671200D03*
G04 #@! TD*
G04 #@! TO.P,U3,1*
G04 #@! TO.N,Net-(U3-Pad1)*
X48666400Y-87312500D03*
G04 #@! TO.P,U3,2*
G04 #@! TO.N,Net-(U3-Pad2)*
X48666400Y-89344500D03*
G04 #@! TD*
G04 #@! TO.P,U4,1*
G04 #@! TO.N,Net-(U4-Pad1)*
X48133000Y-68846700D03*
G04 #@! TO.P,U4,2*
G04 #@! TO.N,Net-(U4-Pad2)*
X48120300Y-82562700D03*
G04 #@! TO.P,U4,3*
G04 #@! TO.N,Net-(SW1-Pad1)*
X70916800Y-68770500D03*
G04 #@! TO.P,U4,4*
G04 #@! TO.N,Net-(U3-Pad2)*
X70916800Y-72021700D03*
G04 #@! TO.P,U4,6*
G04 #@! TO.N,Net-(U1-Pad2)*
X70980300Y-82626200D03*
G04 #@! TO.P,U4,5*
G04 #@! TO.N,Net-(U3-Pad1)*
X70980300Y-79006700D03*
G04 #@! TD*
D12*
G04 #@! TO.N,Net-(U1-Pad2)*
G36*
X93497400Y-65455800D02*
X93507067Y-65504401D01*
X93534597Y-65545603D01*
X93575799Y-65573133D01*
X93624652Y-65582800D01*
X99531101Y-65571058D01*
X99531100Y-120296340D01*
X93712788Y-120319801D01*
X93664226Y-120329664D01*
X93623136Y-120357360D01*
X93595772Y-120398673D01*
X93586300Y-120446800D01*
X93586300Y-126213800D01*
X52882800Y-126213800D01*
X52882800Y-120154700D01*
X52873133Y-120106099D01*
X52845603Y-120064897D01*
X52804401Y-120037367D01*
X52755800Y-120027700D01*
X46874500Y-120027700D01*
X46874500Y-87027061D01*
X47231400Y-87027061D01*
X47231400Y-87597939D01*
X47449866Y-88125362D01*
X47653004Y-88328500D01*
X47449866Y-88531638D01*
X47231400Y-89059061D01*
X47231400Y-89629939D01*
X47449866Y-90157362D01*
X47853538Y-90561034D01*
X48380961Y-90779500D01*
X48951839Y-90779500D01*
X49479262Y-90561034D01*
X49882934Y-90157362D01*
X50101400Y-89629939D01*
X50101400Y-89059061D01*
X49882934Y-88531638D01*
X49679796Y-88328500D01*
X49882934Y-88125362D01*
X50101400Y-87597939D01*
X50101400Y-87027061D01*
X49882934Y-86499638D01*
X49479262Y-86095966D01*
X48951839Y-85877500D01*
X48380961Y-85877500D01*
X47853538Y-86095966D01*
X47449866Y-86499638D01*
X47231400Y-87027061D01*
X46874500Y-87027061D01*
X46874500Y-83304908D01*
X46903766Y-83375562D01*
X47307438Y-83779234D01*
X47834861Y-83997700D01*
X48405739Y-83997700D01*
X48933162Y-83779234D01*
X49078451Y-83633945D01*
X70152161Y-83633945D01*
X70226295Y-83880064D01*
X70763523Y-84073165D01*
X71333754Y-84045978D01*
X71734305Y-83880064D01*
X71808439Y-83633945D01*
X70980300Y-82805805D01*
X70152161Y-83633945D01*
X49078451Y-83633945D01*
X49336834Y-83375562D01*
X49555300Y-82848139D01*
X49555300Y-82409423D01*
X69533335Y-82409423D01*
X69560522Y-82979654D01*
X69726436Y-83380205D01*
X69972555Y-83454339D01*
X70800695Y-82626200D01*
X71159905Y-82626200D01*
X71988045Y-83454339D01*
X72234164Y-83380205D01*
X72427265Y-82842977D01*
X72408165Y-82442361D01*
X96558200Y-82442361D01*
X96558200Y-83013239D01*
X96776666Y-83540662D01*
X97180338Y-83944334D01*
X97707761Y-84162800D01*
X98278639Y-84162800D01*
X98806062Y-83944334D01*
X99209734Y-83540662D01*
X99428200Y-83013239D01*
X99428200Y-82442361D01*
X99209734Y-81914938D01*
X98806062Y-81511266D01*
X98278639Y-81292800D01*
X97707761Y-81292800D01*
X97180338Y-81511266D01*
X96776666Y-81914938D01*
X96558200Y-82442361D01*
X72408165Y-82442361D01*
X72400078Y-82272746D01*
X72234164Y-81872195D01*
X71988045Y-81798061D01*
X71159905Y-82626200D01*
X70800695Y-82626200D01*
X69972555Y-81798061D01*
X69726436Y-81872195D01*
X69533335Y-82409423D01*
X49555300Y-82409423D01*
X49555300Y-82277261D01*
X49336834Y-81749838D01*
X49205451Y-81618455D01*
X70152161Y-81618455D01*
X70980300Y-82446595D01*
X71808439Y-81618455D01*
X71734305Y-81372336D01*
X71197077Y-81179235D01*
X70626846Y-81206422D01*
X70226295Y-81372336D01*
X70152161Y-81618455D01*
X49205451Y-81618455D01*
X48933162Y-81346166D01*
X48405739Y-81127700D01*
X47834861Y-81127700D01*
X47307438Y-81346166D01*
X46903766Y-81749838D01*
X46874500Y-81820492D01*
X46874500Y-78721261D01*
X69545300Y-78721261D01*
X69545300Y-79292139D01*
X69763766Y-79819562D01*
X70167438Y-80223234D01*
X70694861Y-80441700D01*
X71265739Y-80441700D01*
X71793162Y-80223234D01*
X72196834Y-79819562D01*
X72415300Y-79292139D01*
X72415300Y-79038761D01*
X79044900Y-79038761D01*
X79044900Y-79609639D01*
X79263366Y-80137062D01*
X79667038Y-80540734D01*
X80194461Y-80759200D01*
X80765339Y-80759200D01*
X81292762Y-80540734D01*
X81696434Y-80137062D01*
X81914900Y-79609639D01*
X81914900Y-79038761D01*
X81696434Y-78511338D01*
X81292762Y-78107666D01*
X80765339Y-77889200D01*
X80194461Y-77889200D01*
X79667038Y-78107666D01*
X79263366Y-78511338D01*
X79044900Y-79038761D01*
X72415300Y-79038761D01*
X72415300Y-78721261D01*
X72196834Y-78193838D01*
X71793162Y-77790166D01*
X71265739Y-77571700D01*
X70694861Y-77571700D01*
X70167438Y-77790166D01*
X69763766Y-78193838D01*
X69545300Y-78721261D01*
X46874500Y-78721261D01*
X46874500Y-71736261D01*
X69481800Y-71736261D01*
X69481800Y-72307139D01*
X69700266Y-72834562D01*
X70103938Y-73238234D01*
X70631361Y-73456700D01*
X71202239Y-73456700D01*
X71729662Y-73238234D01*
X72133334Y-72834562D01*
X72351800Y-72307139D01*
X72351800Y-72129961D01*
X79044900Y-72129961D01*
X79044900Y-72700839D01*
X79263366Y-73228262D01*
X79667038Y-73631934D01*
X80194461Y-73850400D01*
X80765339Y-73850400D01*
X81292762Y-73631934D01*
X81696434Y-73228262D01*
X81914900Y-72700839D01*
X81914900Y-72129961D01*
X81696434Y-71602538D01*
X81292762Y-71198866D01*
X80765339Y-70980400D01*
X80194461Y-70980400D01*
X79667038Y-71198866D01*
X79263366Y-71602538D01*
X79044900Y-72129961D01*
X72351800Y-72129961D01*
X72351800Y-71736261D01*
X72133334Y-71208838D01*
X71729662Y-70805166D01*
X71202239Y-70586700D01*
X70631361Y-70586700D01*
X70103938Y-70805166D01*
X69700266Y-71208838D01*
X69481800Y-71736261D01*
X46874500Y-71736261D01*
X46874500Y-69558247D01*
X46916466Y-69659562D01*
X47320138Y-70063234D01*
X47847561Y-70281700D01*
X48418439Y-70281700D01*
X48945862Y-70063234D01*
X49349534Y-69659562D01*
X49568000Y-69132139D01*
X49568000Y-68561261D01*
X49536437Y-68485061D01*
X69481800Y-68485061D01*
X69481800Y-69055939D01*
X69700266Y-69583362D01*
X70103938Y-69987034D01*
X70631361Y-70205500D01*
X71202239Y-70205500D01*
X71651173Y-70019545D01*
X97165061Y-70019545D01*
X97239195Y-70265664D01*
X97776423Y-70458765D01*
X98346654Y-70431578D01*
X98747205Y-70265664D01*
X98821339Y-70019545D01*
X97993200Y-69191405D01*
X97165061Y-70019545D01*
X71651173Y-70019545D01*
X71729662Y-69987034D01*
X72133334Y-69583362D01*
X72351800Y-69055939D01*
X72351800Y-68795023D01*
X96546235Y-68795023D01*
X96573422Y-69365254D01*
X96739336Y-69765805D01*
X96985455Y-69839939D01*
X97813595Y-69011800D01*
X98172805Y-69011800D01*
X99000945Y-69839939D01*
X99247064Y-69765805D01*
X99440165Y-69228577D01*
X99412978Y-68658346D01*
X99247064Y-68257795D01*
X99000945Y-68183661D01*
X98172805Y-69011800D01*
X97813595Y-69011800D01*
X96985455Y-68183661D01*
X96739336Y-68257795D01*
X96546235Y-68795023D01*
X72351800Y-68795023D01*
X72351800Y-68485061D01*
X72152561Y-68004055D01*
X97165061Y-68004055D01*
X97993200Y-68832195D01*
X98821339Y-68004055D01*
X98747205Y-67757936D01*
X98209977Y-67564835D01*
X97639746Y-67592022D01*
X97239195Y-67757936D01*
X97165061Y-68004055D01*
X72152561Y-68004055D01*
X72133334Y-67957638D01*
X71729662Y-67553966D01*
X71202239Y-67335500D01*
X70631361Y-67335500D01*
X70103938Y-67553966D01*
X69700266Y-67957638D01*
X69481800Y-68485061D01*
X49536437Y-68485061D01*
X49349534Y-68033838D01*
X48945862Y-67630166D01*
X48418439Y-67411700D01*
X47847561Y-67411700D01*
X47320138Y-67630166D01*
X46916466Y-68033838D01*
X46874500Y-68135153D01*
X46874500Y-65735200D01*
X52781200Y-65735200D01*
X52829801Y-65725533D01*
X52871003Y-65698003D01*
X52898533Y-65656801D01*
X52908200Y-65608200D01*
X52908200Y-61385761D01*
X87655500Y-61385761D01*
X87655500Y-61956639D01*
X87873966Y-62484062D01*
X88277638Y-62887734D01*
X88805061Y-63106200D01*
X89375939Y-63106200D01*
X89903362Y-62887734D01*
X90307034Y-62484062D01*
X90360500Y-62354984D01*
X90413966Y-62484062D01*
X90817638Y-62887734D01*
X91345061Y-63106200D01*
X91915939Y-63106200D01*
X92443362Y-62887734D01*
X92847034Y-62484062D01*
X93065500Y-61956639D01*
X93065500Y-61385761D01*
X92847034Y-60858338D01*
X92443362Y-60454666D01*
X91915939Y-60236200D01*
X91345061Y-60236200D01*
X90817638Y-60454666D01*
X90413966Y-60858338D01*
X90360500Y-60987416D01*
X90307034Y-60858338D01*
X89903362Y-60454666D01*
X89375939Y-60236200D01*
X88805061Y-60236200D01*
X88277638Y-60454666D01*
X87873966Y-60858338D01*
X87655500Y-61385761D01*
X52908200Y-61385761D01*
X52908200Y-59714200D01*
X93497400Y-59714200D01*
X93497400Y-65455800D01*
X93497400Y-65455800D01*
G37*
X93497400Y-65455800D02*
X93507067Y-65504401D01*
X93534597Y-65545603D01*
X93575799Y-65573133D01*
X93624652Y-65582800D01*
X99531101Y-65571058D01*
X99531100Y-120296340D01*
X93712788Y-120319801D01*
X93664226Y-120329664D01*
X93623136Y-120357360D01*
X93595772Y-120398673D01*
X93586300Y-120446800D01*
X93586300Y-126213800D01*
X52882800Y-126213800D01*
X52882800Y-120154700D01*
X52873133Y-120106099D01*
X52845603Y-120064897D01*
X52804401Y-120037367D01*
X52755800Y-120027700D01*
X46874500Y-120027700D01*
X46874500Y-87027061D01*
X47231400Y-87027061D01*
X47231400Y-87597939D01*
X47449866Y-88125362D01*
X47653004Y-88328500D01*
X47449866Y-88531638D01*
X47231400Y-89059061D01*
X47231400Y-89629939D01*
X47449866Y-90157362D01*
X47853538Y-90561034D01*
X48380961Y-90779500D01*
X48951839Y-90779500D01*
X49479262Y-90561034D01*
X49882934Y-90157362D01*
X50101400Y-89629939D01*
X50101400Y-89059061D01*
X49882934Y-88531638D01*
X49679796Y-88328500D01*
X49882934Y-88125362D01*
X50101400Y-87597939D01*
X50101400Y-87027061D01*
X49882934Y-86499638D01*
X49479262Y-86095966D01*
X48951839Y-85877500D01*
X48380961Y-85877500D01*
X47853538Y-86095966D01*
X47449866Y-86499638D01*
X47231400Y-87027061D01*
X46874500Y-87027061D01*
X46874500Y-83304908D01*
X46903766Y-83375562D01*
X47307438Y-83779234D01*
X47834861Y-83997700D01*
X48405739Y-83997700D01*
X48933162Y-83779234D01*
X49078451Y-83633945D01*
X70152161Y-83633945D01*
X70226295Y-83880064D01*
X70763523Y-84073165D01*
X71333754Y-84045978D01*
X71734305Y-83880064D01*
X71808439Y-83633945D01*
X70980300Y-82805805D01*
X70152161Y-83633945D01*
X49078451Y-83633945D01*
X49336834Y-83375562D01*
X49555300Y-82848139D01*
X49555300Y-82409423D01*
X69533335Y-82409423D01*
X69560522Y-82979654D01*
X69726436Y-83380205D01*
X69972555Y-83454339D01*
X70800695Y-82626200D01*
X71159905Y-82626200D01*
X71988045Y-83454339D01*
X72234164Y-83380205D01*
X72427265Y-82842977D01*
X72408165Y-82442361D01*
X96558200Y-82442361D01*
X96558200Y-83013239D01*
X96776666Y-83540662D01*
X97180338Y-83944334D01*
X97707761Y-84162800D01*
X98278639Y-84162800D01*
X98806062Y-83944334D01*
X99209734Y-83540662D01*
X99428200Y-83013239D01*
X99428200Y-82442361D01*
X99209734Y-81914938D01*
X98806062Y-81511266D01*
X98278639Y-81292800D01*
X97707761Y-81292800D01*
X97180338Y-81511266D01*
X96776666Y-81914938D01*
X96558200Y-82442361D01*
X72408165Y-82442361D01*
X72400078Y-82272746D01*
X72234164Y-81872195D01*
X71988045Y-81798061D01*
X71159905Y-82626200D01*
X70800695Y-82626200D01*
X69972555Y-81798061D01*
X69726436Y-81872195D01*
X69533335Y-82409423D01*
X49555300Y-82409423D01*
X49555300Y-82277261D01*
X49336834Y-81749838D01*
X49205451Y-81618455D01*
X70152161Y-81618455D01*
X70980300Y-82446595D01*
X71808439Y-81618455D01*
X71734305Y-81372336D01*
X71197077Y-81179235D01*
X70626846Y-81206422D01*
X70226295Y-81372336D01*
X70152161Y-81618455D01*
X49205451Y-81618455D01*
X48933162Y-81346166D01*
X48405739Y-81127700D01*
X47834861Y-81127700D01*
X47307438Y-81346166D01*
X46903766Y-81749838D01*
X46874500Y-81820492D01*
X46874500Y-78721261D01*
X69545300Y-78721261D01*
X69545300Y-79292139D01*
X69763766Y-79819562D01*
X70167438Y-80223234D01*
X70694861Y-80441700D01*
X71265739Y-80441700D01*
X71793162Y-80223234D01*
X72196834Y-79819562D01*
X72415300Y-79292139D01*
X72415300Y-79038761D01*
X79044900Y-79038761D01*
X79044900Y-79609639D01*
X79263366Y-80137062D01*
X79667038Y-80540734D01*
X80194461Y-80759200D01*
X80765339Y-80759200D01*
X81292762Y-80540734D01*
X81696434Y-80137062D01*
X81914900Y-79609639D01*
X81914900Y-79038761D01*
X81696434Y-78511338D01*
X81292762Y-78107666D01*
X80765339Y-77889200D01*
X80194461Y-77889200D01*
X79667038Y-78107666D01*
X79263366Y-78511338D01*
X79044900Y-79038761D01*
X72415300Y-79038761D01*
X72415300Y-78721261D01*
X72196834Y-78193838D01*
X71793162Y-77790166D01*
X71265739Y-77571700D01*
X70694861Y-77571700D01*
X70167438Y-77790166D01*
X69763766Y-78193838D01*
X69545300Y-78721261D01*
X46874500Y-78721261D01*
X46874500Y-71736261D01*
X69481800Y-71736261D01*
X69481800Y-72307139D01*
X69700266Y-72834562D01*
X70103938Y-73238234D01*
X70631361Y-73456700D01*
X71202239Y-73456700D01*
X71729662Y-73238234D01*
X72133334Y-72834562D01*
X72351800Y-72307139D01*
X72351800Y-72129961D01*
X79044900Y-72129961D01*
X79044900Y-72700839D01*
X79263366Y-73228262D01*
X79667038Y-73631934D01*
X80194461Y-73850400D01*
X80765339Y-73850400D01*
X81292762Y-73631934D01*
X81696434Y-73228262D01*
X81914900Y-72700839D01*
X81914900Y-72129961D01*
X81696434Y-71602538D01*
X81292762Y-71198866D01*
X80765339Y-70980400D01*
X80194461Y-70980400D01*
X79667038Y-71198866D01*
X79263366Y-71602538D01*
X79044900Y-72129961D01*
X72351800Y-72129961D01*
X72351800Y-71736261D01*
X72133334Y-71208838D01*
X71729662Y-70805166D01*
X71202239Y-70586700D01*
X70631361Y-70586700D01*
X70103938Y-70805166D01*
X69700266Y-71208838D01*
X69481800Y-71736261D01*
X46874500Y-71736261D01*
X46874500Y-69558247D01*
X46916466Y-69659562D01*
X47320138Y-70063234D01*
X47847561Y-70281700D01*
X48418439Y-70281700D01*
X48945862Y-70063234D01*
X49349534Y-69659562D01*
X49568000Y-69132139D01*
X49568000Y-68561261D01*
X49536437Y-68485061D01*
X69481800Y-68485061D01*
X69481800Y-69055939D01*
X69700266Y-69583362D01*
X70103938Y-69987034D01*
X70631361Y-70205500D01*
X71202239Y-70205500D01*
X71651173Y-70019545D01*
X97165061Y-70019545D01*
X97239195Y-70265664D01*
X97776423Y-70458765D01*
X98346654Y-70431578D01*
X98747205Y-70265664D01*
X98821339Y-70019545D01*
X97993200Y-69191405D01*
X97165061Y-70019545D01*
X71651173Y-70019545D01*
X71729662Y-69987034D01*
X72133334Y-69583362D01*
X72351800Y-69055939D01*
X72351800Y-68795023D01*
X96546235Y-68795023D01*
X96573422Y-69365254D01*
X96739336Y-69765805D01*
X96985455Y-69839939D01*
X97813595Y-69011800D01*
X98172805Y-69011800D01*
X99000945Y-69839939D01*
X99247064Y-69765805D01*
X99440165Y-69228577D01*
X99412978Y-68658346D01*
X99247064Y-68257795D01*
X99000945Y-68183661D01*
X98172805Y-69011800D01*
X97813595Y-69011800D01*
X96985455Y-68183661D01*
X96739336Y-68257795D01*
X96546235Y-68795023D01*
X72351800Y-68795023D01*
X72351800Y-68485061D01*
X72152561Y-68004055D01*
X97165061Y-68004055D01*
X97993200Y-68832195D01*
X98821339Y-68004055D01*
X98747205Y-67757936D01*
X98209977Y-67564835D01*
X97639746Y-67592022D01*
X97239195Y-67757936D01*
X97165061Y-68004055D01*
X72152561Y-68004055D01*
X72133334Y-67957638D01*
X71729662Y-67553966D01*
X71202239Y-67335500D01*
X70631361Y-67335500D01*
X70103938Y-67553966D01*
X69700266Y-67957638D01*
X69481800Y-68485061D01*
X49536437Y-68485061D01*
X49349534Y-68033838D01*
X48945862Y-67630166D01*
X48418439Y-67411700D01*
X47847561Y-67411700D01*
X47320138Y-67630166D01*
X46916466Y-68033838D01*
X46874500Y-68135153D01*
X46874500Y-65735200D01*
X52781200Y-65735200D01*
X52829801Y-65725533D01*
X52871003Y-65698003D01*
X52898533Y-65656801D01*
X52908200Y-65608200D01*
X52908200Y-61385761D01*
X87655500Y-61385761D01*
X87655500Y-61956639D01*
X87873966Y-62484062D01*
X88277638Y-62887734D01*
X88805061Y-63106200D01*
X89375939Y-63106200D01*
X89903362Y-62887734D01*
X90307034Y-62484062D01*
X90360500Y-62354984D01*
X90413966Y-62484062D01*
X90817638Y-62887734D01*
X91345061Y-63106200D01*
X91915939Y-63106200D01*
X92443362Y-62887734D01*
X92847034Y-62484062D01*
X93065500Y-61956639D01*
X93065500Y-61385761D01*
X92847034Y-60858338D01*
X92443362Y-60454666D01*
X91915939Y-60236200D01*
X91345061Y-60236200D01*
X90817638Y-60454666D01*
X90413966Y-60858338D01*
X90360500Y-60987416D01*
X90307034Y-60858338D01*
X89903362Y-60454666D01*
X89375939Y-60236200D01*
X88805061Y-60236200D01*
X88277638Y-60454666D01*
X87873966Y-60858338D01*
X87655500Y-61385761D01*
X52908200Y-61385761D01*
X52908200Y-59714200D01*
X93497400Y-59714200D01*
X93497400Y-65455800D01*
G04 #@! TD*
M02*
